<svg width="3010" height="1448" xmlns="http://www.w3.org/2000/svg" xmlns:xlink="http://www.w3.org/1999/xlink" xml:space="preserve" overflow="hidden"><g transform="translate(-511 -290)"><path d="M2317 490.671C2317 379.844 2406.84 290 2517.67 290L3320.33 290C3431.16 290 3521 379.844 3521 490.671L3521 1521.33C3521 1632.16 3431.16 1722 3320.33 1722L2517.67 1722C2406.84 1722 2317 1632.16 2317 1521.33Z" fill="#F2F2F2" fill-rule="evenodd"/><path d="M511 1141.34C511 1075.43 564.429 1022 630.336 1022L2153.66 1022C2219.57 1022 2273 1075.43 2273 1141.34L2273 1618.66C2273 1684.57 2219.57 1738 2153.66 1738L630.336 1738C564.429 1738 511 1684.57 511 1618.66Z" fill="#DAE3F3" fill-rule="evenodd"/><path d="M511 417.669C511 355.996 560.996 306 622.669 306L2161.33 306C2223 306 2273 355.996 2273 417.669L2273 864.331C2273 926.004 2223 976 2161.33 976L622.669 976C560.996 976 511 926.004 511 864.331Z" fill="#FFF2CC" fill-rule="evenodd"/><path d="M511 498.668C511 453.011 548.012 416 593.668 416L2132.33 416C2177.99 416 2215 453.011 2215 498.668L2215 829.332C2215 874.988 2177.99 912 2132.33 912L593.668 912C548.012 912 511 874.988 511 829.332Z" fill="#FFF2CC" fill-rule="evenodd"/><text fill="#203864" font-family="Times New Roman,Times New Roman_MSFontService,sans-serif" font-weight="700" font-size="69" transform="matrix(1 0 0 1 1078.9 411)">Independent </text><text fill="#203864" font-family="Times New Roman,Times New Roman_MSFontService,sans-serif" font-weight="700" font-size="69" transform="matrix(1 0 0 1 1467.34 411)">Claim</text><text fill="#203864" font-family="Arial,Arial_MSFontService,sans-serif" font-weight="400" font-size="69" transform="matrix(1 0 0 1 568.158 535)">•</text><text fill="#203864" font-family="Times New Roman,Times New Roman_MSFontService,sans-serif" font-weight="400" font-size="64" transform="matrix(1 0 0 1 609.408 535)">Summarize core features of the invention.</text><text fill="#203864" font-family="Arial,Arial_MSFontService,sans-serif" font-weight="400" font-size="64" transform="matrix(1 0 0 1 568.158 652)">•</text><text fill="#203864" font-family="Times New Roman,Times New Roman_MSFontService,sans-serif" font-weight="400" font-size="64" transform="matrix(1 0 0 1 606.544 652)">Emphasize distinctive innovation aspects</text><text fill="#203864" font-family="Times New Roman,Times New Roman_MSFontService,sans-serif" font-weight="400" font-size="64" transform="matrix(1 0 0 1 1664.72 652)">.</text><text fill="#203864" font-family="Arial,Arial_MSFontService,sans-serif" font-weight="400" font-size="64" transform="matrix(1 0 0 1 568.158 768)">•</text><text fill="#203864" font-family="Times New Roman,Times New Roman_MSFontService,sans-serif" font-weight="400" font-size="64" transform="matrix(1 0 0 1 606.544 768)">Set baseline for patent examination</text><text fill="#333F50" font-family="Times New Roman,Times New Roman_MSFontService,sans-serif" font-weight="400" font-size="64" transform="matrix(1 0 0 1 1512.32 768)">.</text><text fill="#333F50" font-family="Arial,Arial_MSFontService,sans-serif" font-weight="400" font-size="64" transform="matrix(1 0 0 1 568.158 883)">•</text><text fill="#333F50" font-family="Times New Roman,Times New Roman_MSFontService,sans-serif" font-weight="400" font-size="64" transform="matrix(1 0 0 1 603.015 883)">Aim for wide scope to prevent circumvention.</text><path d="M511 1193.84C511 1150.3 546.296 1115 589.835 1115L2194.16 1115C2237.7 1115 2273 1150.3 2273 1193.84L2273 1509.16C2273 1552.7 2237.7 1588 2194.16 1588L589.835 1588C546.296 1588 511 1552.7 511 1509.16Z" fill="#DAE3F3" fill-rule="evenodd"/><text fill="#203864" font-family="Times New Roman,Times New Roman_MSFontService,sans-serif" font-weight="700" font-size="69" transform="matrix(1 0 0 1 1121.05 1158)">Dependent </text><text fill="#203864" font-family="Times New Roman,Times New Roman_MSFontService,sans-serif" font-weight="700" font-size="69" transform="matrix(1 0 0 1 1455.63 1158)">Claims</text><text fill="#203864" font-family="Arial,Arial_MSFontService,sans-serif" font-weight="400" font-size="64" transform="matrix(1 0 0 1 567.039 1275)">•</text><text fill="#203864" font-family="Times New Roman,Times New Roman_MSFontService,sans-serif" font-weight="400" font-size="64" transform="matrix(1 0 0 1 605.424 1275)">Prioritize by importance, with vital aspects first.</text><text fill="#203864" font-family="Arial,Arial_MSFontService,sans-serif" font-weight="400" font-size="64" transform="matrix(1 0 0 1 567.039 1391)">•</text><text fill="#203864" font-family="Times New Roman,Times New Roman_MSFontService,sans-serif" font-weight="400" font-size="64" transform="matrix(1 0 0 1 605.424 1391)">Expand on modifications of the primary characteristics.</text><text fill="#203864" font-family="Arial,Arial_MSFontService,sans-serif" font-weight="400" font-size="64" transform="matrix(1 0 0 1 567.039 1506)">•</text><text fill="#203864" font-family="Times New Roman,Times New Roman_MSFontService,sans-serif" font-weight="400" font-size="64" transform="matrix(1 0 0 1 605.424 1506)">Narrow down the scope, providing more precise definitions.</text><text fill="#203864" font-family="Arial,Arial_MSFontService,sans-serif" font-weight="400" font-size="64" transform="matrix(1 0 0 1 567.039 1622)">•</text><text fill="#203864" font-family="Times New Roman,Times New Roman_MSFontService,sans-serif" font-weight="400" font-size="64" transform="matrix(1 0 0 1 605.424 1622)">Include variations for different use cases or conditions.</text><text fill="#222A35" font-family="Times New Roman,Times New Roman_MSFontService,sans-serif" font-weight="700" font-size="60" transform="matrix(1 0 0 1 2430.13 434)">Top</text><text fill="#222A35" font-family="Times New Roman,Times New Roman_MSFontService,sans-serif" font-weight="700" font-size="60" transform="matrix(1 0 0 1 2527.2 434)">-</text><text fill="#222A35" font-family="Times New Roman,Times New Roman_MSFontService,sans-serif" font-weight="700" font-size="60" transform="matrix(1 0 0 1 2547.26 434)">Down Layered Arrangement of </text><text fill="#222A35" font-family="Times New Roman,Times New Roman_MSFontService,sans-serif" font-weight="700" font-size="60" transform="matrix(1 0 0 1 2660.65 505)">Claimed Features</text><path d="M2685.5 655C2685.5 630.423 2705.2 610.5 2729.5 610.5 2753.8 610.5 2773.5 630.423 2773.5 655 2773.5 679.577 2753.8 699.5 2729.5 699.5 2705.2 699.5 2685.5 679.577 2685.5 655Z" stroke="#000000" stroke-width="4.58333" stroke-miterlimit="8" fill="#FFFFFF" fill-rule="evenodd"/><path d="M2481.5 982C2481.5 957.423 2500.98 937.5 2525 937.5 2549.02 937.5 2568.5 957.423 2568.5 982 2568.5 1006.58 2549.02 1026.5 2525 1026.5 2500.98 1026.5 2481.5 1006.58 2481.5 982Z" stroke="#000000" stroke-width="4.58333" stroke-miterlimit="8" fill="#FFFFFF" fill-rule="evenodd"/><path d="M2898.5 989C2898.5 964.423 2918.2 944.5 2942.5 944.5 2966.8 944.5 2986.5 964.423 2986.5 989 2986.5 1013.58 2966.8 1033.5 2942.5 1033.5 2918.2 1033.5 2898.5 1013.58 2898.5 989Z" stroke="#000000" stroke-width="4.58333" stroke-miterlimit="8" fill="#FFFFFF" fill-rule="evenodd"/><path d="M2405.5 1225C2405.5 1200.42 2425.2 1180.5 2449.5 1180.5 2473.8 1180.5 2493.5 1200.42 2493.5 1225 2493.5 1249.58 2473.8 1269.5 2449.5 1269.5 2425.2 1269.5 2405.5 1249.58 2405.5 1225Z" stroke="#000000" stroke-width="4.58333" stroke-miterlimit="8" fill="#FFFFFF" fill-rule="evenodd"/><path d="M2598.5 1225C2598.5 1200.42 2617.98 1180.5 2642 1180.5 2666.02 1180.5 2685.5 1200.42 2685.5 1225 2685.5 1249.58 2666.02 1269.5 2642 1269.5 2617.98 1269.5 2598.5 1249.58 2598.5 1225Z" stroke="#000000" stroke-width="4.58333" stroke-miterlimit="8" fill="#FFFFFF" fill-rule="evenodd"/><path d="M0 0 204.701 238.403" stroke="#000000" stroke-width="2.29167" stroke-miterlimit="8" fill="none" fill-rule="evenodd" transform="matrix(-1 0 0 1 2728.7 699)"/><path d="M2729 699 2941.55 944.165" stroke="#000000" stroke-width="2.29167" stroke-miterlimit="8" fill="none" fill-rule="evenodd"/><path d="M0 0 75.5084 154.053" stroke="#000000" stroke-width="2.29167" stroke-miterlimit="8" fill="none" fill-rule="evenodd" transform="matrix(-1 0 0 1 2524.51 1026)"/><path d="M2524 1026 2641.14 1180.05" stroke="#000000" stroke-width="2.29167" stroke-miterlimit="8" fill="none" fill-rule="evenodd"/><path d="M2685.5 985C2685.5 960.423 2705.2 940.5 2729.5 940.5 2753.8 940.5 2773.5 960.423 2773.5 985 2773.5 1009.58 2753.8 1029.5 2729.5 1029.5 2705.2 1029.5 2685.5 1009.58 2685.5 985Z" stroke="#000000" stroke-width="4.58333" stroke-miterlimit="8" fill="#FFFFFF" fill-rule="evenodd"/><path d="M2729 699 2729 940.233" stroke="#000000" stroke-width="2.29167" stroke-miterlimit="8" fill="none" fill-rule="evenodd"/><path d="M2729 1029 2841.64 1176.36" stroke="#000000" stroke-width="2.29167" stroke-miterlimit="8" fill="none" fill-rule="evenodd"/><path d="M2798.5 1221C2798.5 1196.42 2818.2 1176.5 2842.5 1176.5 2866.8 1176.5 2886.5 1196.42 2886.5 1221 2886.5 1245.58 2866.8 1265.5 2842.5 1265.5 2818.2 1265.5 2798.5 1245.58 2798.5 1221Z" stroke="#000000" stroke-width="4.58333" stroke-miterlimit="8" fill="#FFFFFF" fill-rule="evenodd"/><text fill="#222A35" font-family="Times New Roman,Times New Roman_MSFontService,sans-serif" font-weight="400" font-size="55" transform="matrix(1 0 0 1 2807.13 673)">Independent claim</text><text fill="#222A35" font-family="Times New Roman,Times New Roman_MSFontService,sans-serif" font-weight="400" font-size="50" transform="matrix(1 0 0 1 3030.74 993)">Dependent claim</text><text fill="#222A35" font-family="Times New Roman,Times New Roman_MSFontService,sans-serif" font-weight="700" font-size="64" transform="matrix(1 0 0 1 2364.25 1395)">Example: </text><text font-family="Times New Roman,Times New Roman_MSFontService,sans-serif" font-weight="400" font-size="64" transform="matrix(1 0 0 1 2697.82 1395)">a power source</text><text font-family="Times New Roman,Times New Roman_MSFontService,sans-serif" font-weight="400" font-size="64" transform="matrix(1 0 0 1 2635.99 1521)">a rechargeable battery</text><text font-family="Times New Roman,Times New Roman_MSFontService,sans-serif" font-weight="400" font-size="64" transform="matrix(1 0 0 1 2496.6 1648)">a lithium</text><text font-family="Times New Roman,Times New Roman_MSFontService,sans-serif" font-weight="400" font-size="64" transform="matrix(1 0 0 1 2726.34 1648)">-</text><text font-family="Times New Roman,Times New Roman_MSFontService,sans-serif" font-weight="400" font-size="64" transform="matrix(1 0 0 1 2747.54 1648)">ion rechargeable battery</text><path d="M2893.15 1410 2893.15 1447.89 2890.85 1447.89 2890.85 1410ZM2905.75 1443.31 2892 1470.81 2878.25 1443.31Z"/><path d="M2893.15 1539 2893.15 1576.89 2890.85 1576.89 2890.85 1539ZM2905.75 1572.31 2892 1599.81 2878.25 1572.31Z"/></g></svg>