<?xml version="1.0" encoding="UTF-8" standalone="no"?>
<!-- Created with Inkscape (http://www.inkscape.org/) -->

<svg
   width="157mm"
   height="157mm"
   viewBox="0 0 157 157"
   version="1.1"
   id="svg1"
   inkscape:version="1.3.1 (91b66b0783, 2023-11-16)"
   sodipodi:docname="favicon.svg"
   xmlns:inkscape="http://www.inkscape.org/namespaces/inkscape"
   xmlns:sodipodi="http://sodipodi.sourceforge.net/DTD/sodipodi-0.dtd"
   xmlns="http://www.w3.org/2000/svg"
   xmlns:svg="http://www.w3.org/2000/svg">
  <sodipodi:namedview
     id="namedview1"
     pagecolor="#ffffff"
     bordercolor="#666666"
     borderopacity="1.0"
     inkscape:showpageshadow="2"
     inkscape:pageopacity="0.0"
     inkscape:pagecheckerboard="0"
     inkscape:deskcolor="#d1d1d1"
     inkscape:document-units="mm"
     inkscape:zoom="0.72426347"
     inkscape:cx="396.95499"
     inkscape:cy="340.34576"
     inkscape:window-width="1920"
     inkscape:window-height="1009"
     inkscape:window-x="1912"
     inkscape:window-y="1432"
     inkscape:window-maximized="1"
     inkscape:current-layer="layer1" />
  <defs
     id="defs1" />
  <g
     inkscape:label="Layer 1"
     inkscape:groupmode="layer"
     id="layer1">
    <path
       style="fill:#ff0000;stroke-width:0.0998562;fill-opacity:1"
       d="m 71.159038,153.22386 c -0.33272,-0.0729 -0.727581,-0.1587 -0.87744,-0.19083 -0.149859,-0.0322 -0.510857,-0.27234 -0.802219,-0.53379 -0.291362,-0.26145 -0.698094,-0.5457 -0.903854,-0.63166 -0.205761,-0.0859 -0.374109,-0.2335 -0.374109,-0.32785 0,-0.29158 -1.052578,-0.35673 -5.280048,-0.32684 -3.429209,0.0241 -4.136784,-0.005 -4.533883,-0.18227 -0.258791,-0.11603 -1.069348,-0.34152 -1.801236,-0.50106 -0.731888,-0.15953 -1.575083,-0.40916 -1.873765,-0.55471 -0.298683,-0.14555 -0.637565,-0.26552 -0.753069,-0.26661 -0.115515,-10e-4 -0.45312,-0.0875 -0.750247,-0.19192 -1.032616,-0.36305 -3.7674,-1.03863 -4.702832,-1.16173 -0.517578,-0.0681 -1.455278,-0.25474 -2.083775,-0.41472 -0.628497,-0.15996 -1.384706,-0.32148 -1.680467,-0.35892 -0.29577,-0.0374 -0.595225,-0.12286 -0.665463,-0.18981 -0.07025,-0.067 -0.229561,-0.1217 -0.354024,-0.1217 -0.124472,0 -0.25678,-0.11752 -0.294019,-0.26116 -0.04413,-0.17032 -0.271751,-0.31701 -0.654258,-0.42172 -0.322605,-0.0882 -0.707542,-0.20642 -0.855427,-0.26245 -0.715619,-0.27115 -1.263644,-0.41064 -1.613245,-0.41064 -0.211321,0 -0.570011,-0.0597 -0.797082,-0.13262 -1.573434,-0.50542 -2.283182,-0.77886 -3.168824,-1.22079 -0.554554,-0.2767 -1.341008,-0.61239 -1.747688,-0.74596 -0.406669,-0.13357 -0.860396,-0.28739 -1.008271,-0.34182 -0.484509,-0.1783 -1.542947,-0.40639 -1.885887,-0.40639 -0.18479,0 -0.441034,-0.0528 -0.569424,-0.11728 -1.373824,-0.69024 -1.907122,-0.87279 -3.056629,-1.04639 -0.535788,-0.0809 -1.277391,-0.20823 -2.554305,-0.43847 -0.765501,-0.13803 -1.763853,-0.46893 -2.563152,-0.84954 -0.300619,-0.14316 -0.624013,-0.26028 -0.718646,-0.26028 -0.09464,0 -0.332656,-0.11214 -0.528915,-0.24922 -0.552327,-0.38571 -2.052123,-1.07161 -2.575066,-1.17767 -0.258794,-0.0525 -0.825283,-0.33258 -1.258867,-0.62244 -0.433584,-0.28988 -0.846569,-0.52704 -0.917749,-0.52704 -0.07116,0 -0.1102,-0.22508 -0.08665,-0.50017 0.04008,-0.46934 0.01407,-0.50769 -0.421903,-0.62164 -0.255535,-0.0667 -0.548471,-0.24218 -0.650948,-0.38975 -0.102487,-0.14757 -0.331482,-0.32398 -0.508873,-0.39202 -0.266963,-0.10231 -0.322524,-0.21806 -0.322524,-0.67161 0,-0.49272 -0.04737,-0.57078 -0.47053,-0.77428 -0.258794,-0.12446 -0.47053,-0.29908 -0.47053,-0.388 0,-0.089 -0.0908,-0.23764 -0.201664,-0.33048 -0.110909,-0.0929 -0.201645,-0.28527 -0.201645,-0.42766 0,-0.14236 -0.105878,-0.29961 -0.23527,-0.34944 -0.129392,-0.0497 -0.352536,-0.20046 -0.495876,-0.33473 -0.14334,-0.13429 -0.370209,-0.24415 -0.504146,-0.24415 -0.295214,0 -0.322999,-0.24894 -0.03998,-0.35848 0.111942,-0.0433 0.270364,-0.3465 0.35206,-0.67374 0.08169,-0.32722 0.194792,-0.59495 0.251324,-0.59495 0.05658,0 0.133036,-0.11662 0.169993,-0.25916 0.04595,-0.17702 -0.09819,-0.42207 -0.454851,-0.77331 l -0.522042,-0.51417 v -1.38174 c 0,-1.10314 -0.04069,-1.3975 -0.201665,-1.45981 -0.127023,-0.0491 -0.201644,-0.25683 -0.201644,-0.56116 0,-0.30433 -0.0746,-0.51198 -0.201665,-0.56115 -0.110908,-0.0428 -0.202919,-0.23932 -0.204458,-0.43645 -10e-4,-0.19711 -0.08472,-0.75292 -0.184841,-1.23512 -0.145314,-0.69979 -0.15572,-1.44631 -0.05152,-3.69903 0.115626,-2.50049 0.10604,-2.85996 -0.08401,-3.15256 -0.308616,-0.47506 -0.324143,-8.95565 -0.01721,-9.36502 0.153017,-0.20408 0.198334,-0.72794 0.201654,-2.33111 0.003,-1.22576 -0.04798,-2.06785 -0.124078,-2.06785 -0.07055,0 -0.169141,-0.22883 -0.219003,-0.5085 -0.0499,-0.27967 -0.168849,-0.66105 -0.264422,-0.84749 -0.09555,-0.18645 -0.206858,-0.44579 -0.247306,-0.57629 -0.04049,-0.13052 -0.188829,-0.2373 -0.32973,-0.2373 -0.4431803,0 -2.4409983,-1.900669 -2.4409983,-2.322289 0,-0.14749 -0.11514,-0.49382 -0.255859,-0.7696 -0.60556,-1.18684 -0.685201,-1.51864 -0.685201,-2.85441 0,-0.77705 -0.0825,-1.60701 -0.199124,-2.00308 -0.111526,-0.37882 -0.214803,-1.36334 -0.234774,-2.23826 -0.03047,-1.33649 -10e-4,-1.59615 0.199113,-1.79877 0.193355,-0.19502 0.234785,-0.48596 0.234785,-1.64863 v -1.41182 l 0.662153,-0.33843 c 0.640664,-0.32745 0.665028,-0.36165 0.750288,-1.05316 0.04848,-0.3931 0.06812,-1.61711 0.04363,-2.72002 -0.03502,-1.57803 -0.08634,-2.03134 -0.241121,-2.1276 -0.162775,-0.10126 -0.192777,-0.5676 -0.174152,-2.70753 l 0.02247,-2.5852 0.408795,-0.43992 0.408795,-0.43994 6.48e-4,-3.81405 c 5.26e-4,-3.09833 -0.03452,-3.84351 -0.186977,-3.97107 -0.103176,-0.0864 -0.229106,-0.38026 -0.279859,-0.65309 -0.05071,-0.27284 -0.218598,-0.62847 -0.373012,-0.79028 -0.265759,-0.2785 -0.279241,-0.42377 -0.252458,-2.71957 0.03148,-2.7025 0.09181,-3.25447 0.366727,-3.3609 0.103641,-0.0401 0.189042,-0.15111 0.189771,-0.24667 7.08e-4,-0.0955 0.242113,-0.38733 0.536426,-0.64837 0.294312,-0.26102 0.535707,-0.52088 0.536425,-0.57747 0.003,-0.21002 0.758122,-0.95161 1.2784843,-1.25505 0.29575,-0.17246 0.809988,-0.39126 1.142715,-0.48622 0.332736,-0.095 0.857856,-0.34433 1.166937,-0.55413 0.309091,-0.20982 0.601683,-0.38148 0.650209,-0.38148 0.04848,0 0.348527,-0.18853 0.666658,-0.41898 0.403592,-0.29235 0.997826,-0.52093 1.965953,-0.75627 1.714082,-0.41666 1.8688,-0.49722 1.8688,-0.97317 0,-0.20687 0.08877,-0.49455 0.197382,-0.63933 0.108551,-0.14477 0.199306,-0.54557 0.201655,-0.8907 0.003,-0.38788 0.08128,-0.69194 0.205926,-0.7963 0.260383,-0.21796 0.260383,-0.76184 0,-0.86262 -0.110909,-0.0428 -0.201655,-0.17149 -0.201655,-0.28571 0,-0.1142 -0.05446,-0.20764 -0.121162,-0.20764 -0.109725,0 -0.394493,-0.41452 -0.931536,-1.35599 -0.207545,-0.36387 -0.305761,-1.75902 -0.186127,-2.64417 0.05932,-0.43899 0.22284,-0.68647 0.857725,-1.29826 0.431428,-0.41576 0.784419,-0.85903 0.784419,-0.9851 0,-0.12605 0.196614,-0.34597 0.436915,-0.48871 0.783852,-0.46558 1.041887,-0.82883 1.041887,-1.46678 0,-0.39349 0.06569,-0.60881 0.201665,-0.66144 0.110908,-0.0428 0.201654,-0.1589 0.201654,-0.25771 0,-0.0988 0.196613,-0.31554 0.436924,-0.48163 0.240301,-0.16609 0.663692,-0.55162 0.940868,-0.85673 0.420385,-0.46276 0.503995,-0.65238 0.504136,-1.14355 1.02e-4,-0.38326 0.09404,-0.70916 0.269069,-0.93358 0.147875,-0.18961 0.268875,-0.4511 0.268875,-0.58108 0,-0.12997 0.0908,-0.31226 0.201655,-0.4051 0.110909,-0.0929 0.201654,-0.30444 0.201654,-0.47018 0,-0.16577 0.120991,-0.41182 0.268876,-0.54681 0.147885,-0.13499 0.268876,-0.29699 0.268876,-0.36002 0,-0.13347 0.274858,-0.47389 0.965718,-1.19608 0.356362,-0.37252 0.474488,-0.59747 0.421346,-0.80244 -0.06053,-0.23357 0.03178,-0.33316 0.513094,-0.55344 0.322817,-0.14775 0.681487,-0.26997 0.797042,-0.2716 0.115565,-0.002 0.370624,-0.17196 0.566792,-0.3785 0.306996,-0.32318 0.366393,-0.52471 0.426398,-1.44671 0.07541,-1.15897 0.0995,-1.2037 1.250182,-2.32038 0.453049,-0.43967 0.571671,-0.6508 0.572835,-1.01961 0.003,-0.85551 0.158261,-1.4821 0.367881,-1.4821 0.134969,0 0.17646,-0.0899 0.127934,-0.27703 -0.04717,-0.18198 0.0166,-0.33273 0.185976,-0.4394 0.141791,-0.0893 0.257792,-0.26322 0.257792,-0.38647 0,-0.12324 0.0908,-0.25918 0.201664,-0.30211 0.110909,-0.0428 0.201644,-0.17462 0.201644,-0.29263 0,-0.11837 0.217972,-0.30643 0.486149,-0.41945 l 0.486139,-0.20488 -0.261254,-0.29669 c -0.196462,-0.22311 -0.255646,-0.47303 -0.238631,-1.00764 0.02126,-0.66948 0.06833,-0.75928 0.806486,-1.53983 1.358206,-1.43624 2.110477,-2.09181 3.463906,-3.01867 0.723058,-0.49515 1.365079,-0.90028 1.426723,-0.90028 0.06164,0 0.338172,-0.18123 0.614508,-0.40274 1.084492,-0.86929 2.532189,-1.590251 3.648292,-1.816911 0.5989,-0.12162 1.253219,-0.22112 1.454043,-0.22112 0.200814,0 0.492546,-0.0688 0.648296,-0.15285 0.517842,-0.27955 2.306433,-0.67212 3.396179,-0.74544 2.232632,-0.1502 4.419259,-1.4918698 3.195981,-1.9609798 -0.254441,-0.0976 -0.540019,-0.0965 -0.933377,0.003 -0.736947,0.18718 -0.781333,0.18264 -0.582138,-0.0595 0.09201,-0.11188 0.271872,-0.20341 0.399604,-0.20341 0.127732,0 0.482788,-0.18306 0.789005,-0.40679 0.306216,-0.22373 0.709181,-0.4068 0.89547,-0.4068 0.186299,0 0.595185,-0.11607 0.908619,-0.25792 0.8193,-0.37079 0.900703,-0.38498 4.655047,-0.81087 0.620141,-0.0704 1.164612,-0.18345 1.209936,-0.25134 0.04533,-0.0679 0.203403,-0.17107 0.351284,-0.2293 0.403104,-0.1587 4.09592,-0.50965 5.780808,-0.54938 0.813346,-0.0192 1.545732,-0.0429 1.627525,-0.0528 0.08179,-0.009 0.41767,-0.22508 0.746395,-0.47825 0.328723,-0.25316 0.927267,-0.554093 1.330096,-0.668736 0.40283,-0.114641 1.06321,-0.304127 1.467511,-0.421088 0.404302,-0.116963 0.948778,-0.214104 1.209945,-0.215885 0.261162,-0.0022 0.716823,-0.06781 1.012583,-0.146676 0.656642,-0.175135 8.466132,-0.435016 13.510968,-0.449581 2.03336,-0.0055 3.75752,-0.04891 3.83147,-0.09567 0.27466,-0.173636 3.3649,-0.26042 4.10033,-0.115149 0.40667,0.08033 1.22338,0.199591 1.81491,0.265031 0.59152,0.06543 1.37798,0.186992 1.74768,0.270117 0.3697,0.08314 1.51915,0.210765 2.55432,0.283634 1.03516,0.07288 2.154346,0.216359 2.487076,0.318875 0.33274,0.102467 0.96796,0.229283 1.4116,0.281723 0.44364,0.05248 1.0486,0.180049 1.34437,0.283575 0.29576,0.10357 0.96558,0.1891 1.48847,0.19019 0.94844,0.002 1.9028,0.24639 2.67799,0.68588 0.22242,0.12611 0.7069,0.30441 1.07659,0.39623 0.7095,0.17623 1.54604,0.55115 1.54604,0.69288 0,0.09 0.52224,0.32377 1.8149,0.81211 0.44365,0.1676 0.8641,0.35622 0.93435,0.41918 0.0702,0.063 0.24783,0.11445 0.39464,0.11445 0.14681,0 0.39183,0.10956 0.54446,0.24345 0.15266,0.13389 0.49743,0.31834 0.76616,0.4099 0.513,0.17478 1.34696,0.88298 1.49251,1.2674498 0.18068,0.47729 2.23585,1.27157 3.55393,1.37354 0.49887,0.0385 0.89527,0.1832 1.40302,0.51184 1.08964,0.705261 2.60863,1.381971 4.62354,2.059831 1.14532,0.38529 2.08378,0.80778 2.08378,0.93808 0,0.0613 0.0762,0.11143 0.16932,0.11143 0.0931,0 0.24489,0.12204 0.33723,0.2712 0.0923,0.14916 0.28483,0.2712 0.42773,0.2712 0.14288,0 0.29719,0.061 0.34288,0.13559 0.0457,0.0746 0.23481,0.1356 0.42027,0.1356 0.19866,0 0.52175,0.18107 0.78638,0.44068 1.12204,1.10084 1.54303,1.45769 1.71961,1.45769 0.29769,0 1.85613,0.8234 1.78333,0.94221 -0.0358,0.0583 0.0545,0.21548 0.20054,0.34888 0.14615,0.13339 0.26571,0.34858 0.26571,0.4782 0,0.12963 0.0813,0.26712 0.18057,0.30557 0.12467,0.0483 0.20638,0.46609 0.26394,1.34991 0.0459,0.704 0.14404,1.5486 0.21823,1.87688 0.0742,0.32828 0.18228,0.96232 0.24021,1.40897 0.0927,0.71501 0.15694,0.84467 0.53707,1.08477 0.42846,0.27063 0.4318,0.28125 0.43692,1.3914 0.004,0.78828 0.0538,1.11869 0.16953,1.11869 0.32059,0 -0.37973,0.34921 -1.33804,0.66721 -1.52043,0.50452 -1.45537,0.31687 -1.40307,4.04636 0.0268,1.91611 0.104,3.33349 0.19289,3.5448 0.0815,0.19366 0.1835,1.45779 0.22676,2.80917 0.0446,1.39443 0.1403,2.53798 0.22121,2.64418 0.0785,0.10294 0.13342,0.46168 0.12226,0.79731 -0.0111,0.33558 0.0596,0.73053 0.15726,0.87764 0.0977,0.1471 0.18206,0.54375 0.18754,0.88138 0.0191,1.17968 0.17403,1.81772 0.47837,1.97062 0.42069,0.21132 0.93632,0.89918 0.95832,1.27841 0.0105,0.18148 0.11282,0.38281 0.22731,0.44744 0.11449,0.0647 0.20816,0.29392 0.20816,0.50955 0,0.21564 0.0642,0.4321 0.14273,0.48103 0.27245,0.16984 0.42201,0.81525 0.4845,2.09084 0.0345,0.70535 0.11385,1.37439 0.17621,1.48678 0.0624,0.1124 0.31545,0.27298 0.56242,0.35684 0.42584,0.14462 0.45141,0.19042 0.49485,0.88619 0.028,0.44873 0.11939,0.77584 0.23525,0.84215 0.10422,0.0596 0.18948,0.27899 0.18948,0.48748 0,0.20846 0.11461,0.48367 0.2547,0.61154 0.19754,0.1803 0.25303,0.41312 0.24721,1.03707 -0.005,0.5973 0.0559,0.87525 0.23869,1.07898 0.17404,0.19397 0.24182,0.4691 0.23122,0.93854 -0.011,0.48694 0.0574,0.7483 0.2563,0.97964 0.18831,0.219 0.24872,0.42949 0.19743,0.68809 -0.0891,0.44926 0.0194,0.78233 0.2549,0.78233 0.25118,0 0.52549,0.8689 0.4816,1.52549 -0.0685,1.0246 -0.0909,1.09693 -0.38076,1.22738 -0.27613,0.12429 -0.30498,0.2377 -0.3312,1.3019 -0.0158,0.64118 -0.0165,1.51274 -0.002,1.93681 0.0235,0.66563 -0.009,0.78284 -0.24222,0.8573 -0.25914,0.083 -0.26901,0.19913 -0.25977,3.05889 0.009,2.79993 0.0248,2.98088 0.27092,3.11374 0.1503,0.0811 0.26132,0.28306 0.26132,0.4753 0,0.20668 0.0769,0.33421 0.20167,0.33421 0.26361,0 0.27489,0.85468 0.0142,1.07294 -0.10313,0.0864 -0.21712,0.35312 -0.25331,0.59291 -0.0362,0.23976 -0.1609,0.86307 -0.27714,1.38512 -0.15055,0.67618 -0.17669,1.10325 -0.0909,1.48485 0.11488,0.51088 0.55941,1.01424 0.90136,1.02071 0.0879,0.001 0.49046,0.18606 0.89464,0.40981 0.4042,0.22372 0.82856,0.40678 0.94302,0.40678 0.36819,0 0.85958,0.29284 0.9952,0.59306 0.0797,0.17642 0.64413,0.54842 1.42642,0.94013 0.95913,0.48026 1.29454,0.71518 1.29454,0.90675 0,0.14221 0.0941,0.31168 0.20912,0.3766 0.24484,0.1382 0.6515,1.94547 0.55379,2.46105 -0.0723,0.38155 0.23405,1.09554 0.47011,1.09554 0.16872,0 -0.40816,0.57083 -0.91616,0.90655 -0.51711,0.34176 -0.38408,0.83638 0.2881,1.07112 0.29576,0.10336 0.67387,0.18873 0.84024,0.18985 0.2891,0.002 0.30248,0.0515 0.30248,1.12203 0,0.94025 -0.0397,1.14493 -0.24713,1.27562 -0.2294,0.14451 -0.24937,0.43648 -0.2782,4.06655 -0.0256,3.227559 -0.0647,3.929819 -0.2234,4.019419 -0.15569,0.0878 -0.19233,0.57318 -0.19233,2.54808 0,2.64268 0.0117,2.59354 -0.87143,3.62755 l -0.27128,0.3176 0.52927,0.44945 c 0.32741,0.27802 0.54835,0.59308 0.57928,0.82604 0.0274,0.20714 0.16742,0.6366 0.31095,0.95438 0.14353,0.31778 0.26095,0.6652 0.26095,0.77203 0,0.10678 0.0926,0.27177 0.20583,0.36653 0.28087,0.23512 0.26696,3.53564 -0.0172,4.08997 -0.10371,0.20231 -0.18857,0.46785 -0.18857,0.5901 0,0.2435 -0.39848,0.63189 -0.97467,0.95002 -0.32868,0.18146 -0.3697,0.281 -0.3697,0.89696 0,0.77336 0.20895,1.0542 1.20394,1.61826 0.4365,0.24743 0.54374,0.38438 0.54374,0.69431 0,0.22222 0.0877,0.42003 0.20663,0.46607 0.11364,0.0441 0.29513,0.2526 0.40332,0.46359 0.22351,0.43596 0.26498,1.55891 0.0623,1.68529 -0.0739,0.0461 -0.13444,0.2221 -0.13444,0.39115 0,0.33983 -0.39094,0.7402 -1.00829,1.03262 -0.68288,0.32348 -1.01138,0.6861 -0.92737,1.02369 0.053,0.21306 -0.0742,0.51998 -0.42665,1.0298 -0.27619,0.39946 -0.58362,0.77508 -0.68317,0.83473 -0.0996,0.0596 -0.18102,0.19641 -0.18102,0.30393 0,0.10754 -0.12099,0.27173 -0.26887,0.36487 -0.14789,0.0932 -0.26888,0.27864 -0.26888,0.41221 0,0.13355 -0.0908,0.27796 -0.20166,0.32088 -0.11091,0.0428 -0.20165,0.18646 -0.20165,0.31893 0,0.13247 -0.121,0.27278 -0.26888,0.3118 -0.17793,0.0469 -0.26887,0.18494 -0.26887,0.40809 0,0.18546 -0.0908,0.3723 -0.20166,0.41525 -0.11091,0.0428 -0.20166,0.19838 -0.20166,0.34549 0,0.1471 -0.0604,0.30509 -0.13417,0.35109 -0.25949,0.16175 -0.80689,1.52342 -0.80689,2.00715 0,0.34342 -0.10202,0.59215 -0.3422,0.8344 -0.18822,0.18985 -0.38482,0.34652 -0.43692,0.34818 -0.0521,0.002 -0.23069,0.10859 -0.39687,0.23763 -0.21774,0.16907 -0.30821,0.39091 -0.32387,0.79408 -0.0178,0.45912 -0.0903,0.60033 -0.40366,0.78704 -0.21005,0.12516 -0.38192,0.28226 -0.38192,0.34912 0,0.0668 -0.21173,0.22293 -0.47053,0.34678 -0.25878,0.12387 -0.47053,0.27927 -0.47053,0.34536 0,0.0661 -0.086,0.12014 -0.1913,0.12014 -0.10523,0 -0.37281,0.18306 -0.59463,0.4068 -0.22182,0.22375 -0.4438,0.40678 -0.49328,0.40678 -0.0495,0 -0.24872,0.12597 -0.44275,0.27991 -0.31055,0.24638 -0.37073,0.25517 -0.50252,0.0735 -0.17578,-0.24248 -0.50572,-0.16873 -1.40532,0.31406 -0.37007,0.1986 -0.53162,0.34977 -0.41606,0.38937 0.18128,0.0621 -1.23223,0.82452 -1.55016,0.83613 -0.22104,0.009 -1.4986,0.58039 -3.41128,1.52816 -0.92426,0.458 -1.88134,0.92821 -2.12687,1.04493 -0.52116,0.24775 -1.3685,1.06077 -1.3685,1.31307 0,0.26108 -0.9459,1.13652 -1.22798,1.13652 -0.21846,0 -2.19516,0.85485 -2.85739,1.23575 -0.4162,0.23935 -1.42116,0.49007 -2.6365,0.65772 -0.62849,0.0867 -1.3258,0.21381 -1.54956,0.28246 -0.22376,0.0687 -0.94972,0.21905 -1.61325,0.33419 -1.73377,0.30085 -2.02245,0.41964 -2.34027,0.96295 -0.52687,0.90069 -0.3967,0.99256 1.46996,1.03746 1.22367,0.0295 1.8111,-0.0832 3.29371,-0.63131 0.51758,-0.19138 1.06508,-0.34924 1.21666,-0.35082 0.15158,-0.002 0.33308,-0.0569 0.40332,-0.123 0.19785,-0.18611 1.67374,-0.33223 1.67374,-0.16569 0,0.15361 -0.91984,0.82543 -1.14031,0.83283 -0.0753,0.002 -0.37883,0.1225 -0.6746,0.26659 -0.29576,0.14412 -0.67984,0.26408 -0.85351,0.26661 -0.17369,0.002 -0.50641,0.0926 -0.73942,0.20012 -0.23299,0.10754 -0.57487,0.21433 -0.75972,0.2373 -0.19355,0.024 -0.39236,0.17115 -0.4688,0.34687 -0.073,0.1678 -0.20095,0.3051 -0.28435,0.3051 -0.0834,0 -0.31875,0.13257 -0.52298,0.29461 -0.72535,0.57549 -1.35138,0.80842 -2.48812,0.92579 -1.24635,0.1287 -2.30613,0.4438 -2.8077,0.83482 -0.17634,0.13746 -0.40115,0.24995 -0.49958,0.24995 -0.0984,0 -0.37763,0.0866 -0.62044,0.19235 -1.1298,0.49225 -2.50479,0.652 -6.65843,0.7736 -2.27411,0.0666 -4.346466,0.12783 -4.605266,0.13612 -0.56407,0.0181 -2.13235,-0.19776 -3.42815,-0.4717 -0.67543,-0.14279 -2.38306,-0.22467 -6.04968,-0.29008 -2.80974,-0.05 -5.68334,-0.11569 -6.38578,-0.1457 -0.85322,-0.0365 -1.61184,0.0174 -2.28543,0.16266 -0.554556,0.11945 -1.280516,0.27578 -1.613256,0.34737 -0.72097,0.15511 -1.86956,0.3461 -3.15927,0.52535 -1.39906,0.19444 -4.88631,0.26576 -5.57915,0.11411 z M 120.39673,13.083651 c 0.11129,-0.11226 -0.39866,-0.598901 -0.62758,-0.598901 -0.10487,0 -0.28897,0.038 -0.40912,0.0846 -0.20005,0.0774 -0.19922,0.10602 0.0101,0.33898 0.215,0.23964 0.85481,0.34889 1.02685,0.17536 z M 87.896494,153.23577 c -0.75476,-0.1363 1.0635,-0.14111 2.68875,-0.008 l 1.20994,0.0997 -1.68047,0.002 c -0.92426,0.002 -1.92246,-0.0414 -2.21822,-0.0949 z m -2.99123,-0.23273 c 0.20334,-0.0311 0.53606,-0.0311 0.73941,0 0.20333,0.0311 0.0369,0.0565 -0.3697,0.0565 -0.40668,0 -0.57305,-0.0255 -0.36971,-0.0565 z m -49.641015,-6.69822 c -0.554545,-0.14127 -1.411135,-0.34369 -1.903519,-0.44982 -1.13074,-0.24378 -2.66734,-1.04471 -2.66734,-1.39031 0,-0.10962 0.20955,-0.0685 0.638569,0.12486 0.559838,0.25251 1.747485,0.61883 3.433721,1.05913 0.682277,0.17812 1.708505,0.67194 1.708505,0.82211 0,0.14632 0.03502,0.15111 -1.209936,-0.16597 z M 9.7975677,132.23305 c -0.04069,-0.0663 -0.237123,-0.16189 -0.436652,-0.21241 -0.199528,-0.0506 -0.518489,-0.20368 -0.708826,-0.34038 -0.190328,-0.13669 -0.496504,-0.26994 -0.680394,-0.29607 -0.227932,-0.0324 -0.348204,-0.14629 -0.377953,-0.35781 -0.02399,-0.17063 -0.160113,-0.38365 -0.302481,-0.47331 -0.142369,-0.0897 -0.258855,-0.26125 -0.258855,-0.38129 0,-0.12001 -0.191421,-0.48477 -0.425385,-0.81052 l -0.425375,-0.59227 0.02075,-2.33319 0.02075,-2.33318 -0.469205,-0.29251 c -0.258065,-0.16085 -0.469214,-0.37157 -0.469214,-0.46821 0,-0.0967 -0.08209,-0.24444 -0.182371,-0.32841 -0.143786,-0.12035 -0.188142,-0.91057 -0.209692,-3.73519 -0.02692,-3.53537 -0.02338,-3.58714 0.273826,-3.9319 0.447047,-0.51858 1.152786,-0.48384 1.597049,0.0787 0.474711,0.60101 0.504045,0.81462 0.52184,3.79979 0.01225,2.04698 0.0583,2.71117 0.198041,2.8521 0.126871,0.12795 0.212171,0.79939 0.281144,2.21315 0.07511,1.53878 0.145486,2.05606 0.291225,2.13949 0.105716,0.0605 0.160882,0.16113 0.1226,0.22364 -0.03826,0.0624 0.145719,0.30428 0.408886,0.53734 l 0.478497,0.42375 0.02743,1.7256 c 0.0251,1.58375 0.05375,1.76125 0.348142,2.15967 0.17641,0.23876 0.402287,0.46566 0.50195,0.50424 0.2053793,0.0794 0.2476503,0.34984 0.05476,0.34984 -0.06964,0 -0.159748,-0.0541 -0.200389,-0.12058 z m -4.782494,-22.26957 c -0.166449,-0.22816 -0.186147,-0.55875 -0.110838,-1.85941 0.05041,-0.87004 0.121001,-2.13107 0.156924,-2.80229 0.09849,-1.83987 0.384978,-2.33917 0.968816,-1.68845 0.227435,0.25347 0.246303,0.51096 0.21621,2.94926 -0.03472,2.81936 -0.06367,3.07266 -0.393237,3.45123 -0.271559,0.31192 -0.587472,0.29294 -0.837875,-0.0504 z M 150.37232,103.23944 c 0.0151,-0.20814 0.13336,-0.45653 0.26266,-0.55197 0.21656,-0.15987 0.23115,-0.48295 0.18474,-4.091579 l -0.0504,-3.91803 0.52742,-0.36868 0.52743,-0.36866 -0.0667,-1.6967 c -0.0492,-1.25092 -0.12019,-1.75631 -0.27024,-1.92358 -0.11195,-0.12475 -0.20354,-0.47389 -0.20354,-0.77583 0,-0.3226 -0.0831,-0.61865 -0.20165,-0.71782 -0.11091,-0.0929 -0.20205,-0.35964 -0.20254,-0.5929 0,-0.23326 -0.12109,-0.60715 -0.26799,-0.83089 -0.1469,-0.22373 -0.2675,-0.56313 -0.26798,-0.75423 0,-0.19106 -0.12425,-0.60492 -0.27501,-0.91966 -0.26582,-0.55496 -0.25285,-0.92776 0.0262,-0.75379 0.0753,0.0469 0.10679,0.20126 0.0701,0.343 -0.0423,0.16355 0.0269,0.30828 0.18995,0.39625 0.14122,0.0763 0.25675,0.25101 0.25675,0.38842 0,0.13739 0.0907,0.3258 0.20167,0.41863 0.11089,0.0929 0.20164,0.24527 0.20164,0.33873 0,0.19754 0.52933,1.36282 1.01072,2.22506 0.18352,0.3287 0.33365,0.71197 0.33365,0.85174 0,0.13977 0.0908,0.28925 0.20166,0.33217 0.11091,0.0428 0.20166,0.21094 0.20166,0.37335 0,0.16241 0.121,0.6425 0.26887,1.06689 0.37189,1.0672 0.36854,2.44064 -0.007,2.81929 -0.18005,0.18159 -0.24647,0.37116 -0.1914,0.54618 0.0548,0.17412 -0.006,0.34987 -0.17255,0.50157 -0.18359,0.16687 -0.32282,0.63873 -0.48798,1.65379 -0.21513,1.32224 -0.21568,1.43164 -0.008,1.5848 0.18346,0.13531 0.21539,0.36448 0.17994,1.291669 -0.0237,0.61993 -0.10336,1.20995 -0.17699,1.31113 -0.21679,0.29787 -0.4659,0.73884 -0.64295,1.13812 -0.0909,0.20508 -0.24283,0.37291 -0.33753,0.37291 -0.0947,0 -0.17409,0.0457 -0.1764,0.10168 -0.002,0.0559 -0.15309,0.21097 -0.33505,0.34452 -0.33063,0.24268 -0.3308,0.24261 -0.30326,-0.13558 z M 4.1482187,83.077941 c 0.04859,-0.2608 0.01883,-0.58628 -0.06853,-0.75091 -0.232163,-0.43755 -0.05476,-0.82275 0.37878,-0.82275 0.354479,0 0.36619,0.0245 0.387791,0.81047 0.01903,0.69282 -0.02014,0.84043 -0.27006,1.01698 -0.435123,0.30741 -0.522667,0.25548 -0.427946,-0.25379 z m -0.443541,-3.37033 c -0.100817,-0.28624 -0.183586,-2.24674 -0.23612,-5.59344 -0.04454,-2.83401 -0.108774,-5.28946 -0.142885,-5.45658 -0.09434,-0.46238 0.209084,-1.56563 0.50199,-1.82503 0.539641,-0.47792 0.580717,-0.26951 0.633413,3.21334 0.04616,3.04813 0.03128,3.32547 -0.182392,3.40817 -0.251958,0.0975 -0.252677,0.0382 0.05193,4.25503 0.06741,0.9331 0.0909,1.86364 0.05213,2.06787 -0.09869,0.5207 -0.48404,0.48128 -0.678022,-0.0694 z M 142.29774,74.391381 c -0.58522,-1.00045 -0.7658,-5.70628 -0.22298,-5.81084 0.074,-0.0143 0.15047,0.18766 0.17006,0.44869 0.0196,0.26103 0.12215,0.77969 0.22791,1.15259 0.19708,0.69489 0.35759,4.67815 0.18852,4.67815 -0.0492,0 -0.21275,-0.21086 -0.36351,-0.46859 z M 23.837081,29.899441 c 0,-0.11719 0.09069,-0.3046 0.201655,-0.41648 0.126527,-0.12761 0.201654,-0.46104 0.201654,-0.89493 0,-0.42208 0.07794,-0.77844 0.200156,-0.9146 0.110079,-0.12269 0.259979,-0.58513 0.333101,-1.02766 0.343386,-2.0781 0.454072,-2.48014 0.700719,-2.54521 0.134656,-0.0355 0.244836,-0.1618 0.244836,-0.28065 0,-0.11885 0.06245,-0.2161 0.138765,-0.2161 0.07632,0 0.18219,-0.107 0.23527,-0.23781 0.140699,-0.34677 1.143839,-1.66057 1.267906,-1.66057 0.0582,0 0.105737,-0.1176 0.105737,-0.26135 0,-0.28715 0.591642,-0.82343 0.908436,-0.82343 0.166602,0 0.170711,0.0356 0.0246,0.21317 -0.215157,0.2615 -0.795493,1.67677 -0.802224,1.95642 -0.003,0.11185 -0.09373,0.32183 -0.202282,0.46658 -0.108561,0.14478 -0.197383,0.37278 -0.197383,0.50669 0,0.13389 -0.211807,0.44258 -0.470692,0.68596 -0.456561,0.42925 -0.471178,0.47436 -0.487384,1.50419 -0.01194,0.76344 -0.06863,1.08176 -0.201502,1.13319 -0.101637,0.0395 -0.184791,0.16152 -0.184791,0.2715 0,0.10999 -0.211746,0.4606 -0.47053,0.77915 -0.258794,0.31855 -0.47053,0.64001 -0.47053,0.71437 0,0.2045 -0.789116,1.26065 -0.941911,1.26065 -0.07349,0 -0.133593,-0.0959 -0.133593,-0.21308 z M 132.29444,16.516861 c -0.55346,-0.31078 -0.68075,-0.58117 -0.20165,-0.42835 0.40963,0.13066 0.90744,0.46827 0.90744,0.61539 0,0.17011 -0.13207,0.13509 -0.70579,-0.18704 z m -3.93082,-2.33841 c -0.44284,-0.24943 -1.00325,-0.67154 -1.24536,-0.93801 -0.24212,-0.26646 -0.52656,-0.48449 -0.63211,-0.48449 -0.10555,0 -0.22499,-0.0539 -0.26541,-0.11995 -0.0404,-0.066 -0.36161,-0.161061 -0.71374,-0.211291 -0.79662,-0.11365 -1.74879,-0.45529 -2.17078,-0.77889 -0.17633,-0.13521 -0.36983,-0.24585 -0.42999,-0.24585 -0.0601,0 -0.2667,-0.14706 -0.459,-0.32681 -0.32478,-0.30359 -1.01918,-0.70276 -2.68908,-1.5457298 -0.3697,-0.18663 -0.7707,-0.42409 -0.89113,-0.52769 -0.1204,-0.10367 -0.63463,-0.3396 -1.14271,-0.52448 -0.50807,-0.18485 -1.23069,-0.54821 -1.60581,-0.80747 -0.37511,-0.25925 -0.8177,-0.47136 -0.98351,-0.47136 -0.35994,0 -0.74563,-0.19463 -1.10597,-0.55808 -0.33617,-0.33908 -0.72095,-0.49656 -2.13546,-0.87405 -0.90129,-0.24052 -1.04075,-0.30767 -0.66009,-0.3178 0.26546,-0.007 0.95573,0.10918 1.53394,0.25835 0.5782,0.14915 1.2,0.27119 1.38175,0.27119 0.18176,0 0.90852,0.30509 1.615,0.67799 0.7065,0.37289 1.33815,0.67799 1.4037,0.67799 0.0655,0 0.64492,0.25024 1.28751,0.5561 1.1987,0.57052 1.37332,0.6586 2.09422,1.05621 0.23017,0.12696 0.69074,0.3174 1.02346,0.42323 0.33274,0.1058 0.87393,0.36231 1.20266,0.57001 0.32872,0.2076798 0.65023,0.3775998 0.71447,0.3775998 0.0643,0 0.26089,0.17274 0.43702,0.38387 0.18542,0.22225 0.61244,0.47904 1.01435,0.60996 1.11687,0.36383 3.35338,1.485561 3.35338,1.681901 0,0.0992 0.0885,0.21459 0.19654,0.25642 0.1081,0.0419 0.23221,0.18945 0.27581,0.32802 0.0436,0.13856 0.28827,0.38221 0.54371,0.54144 0.46679,0.29098 0.50821,0.54715 0.0851,0.52638 -0.12503,-0.006 -0.58965,-0.21525 -1.03249,-0.46471 z M 46.447512,10.30748 c 0.05739,-0.17374 1.184985,-0.7001498 1.184985,-0.5532198 0,0.0939 -1.009314,0.6965198 -1.166623,0.6965198 -0.03614,0 -0.04444,-0.0644 -0.01832,-0.1433 z M 109.74257,5.2980502 c 0,-0.0746 0.12099,-0.1356 0.26887,-0.1356 0.14789,0 0.26888,0.061 0.26888,0.1356 0,0.0746 -0.12099,0.13559 -0.26888,0.13559 -0.14788,0 -0.26887,-0.061 -0.26887,-0.13559 z"
       id="path2" />
    <path
       style="fill:#ffffff;fill-opacity:1;stroke-width:0.0948793"
       d="m 38.445677,144.32173 c 0.08897,-0.0385 0.195301,-0.0338 0.236275,0.0105 0.04093,0.0444 -0.03187,0.0759 -0.161801,0.0701 -0.143598,-0.007 -0.172811,-0.038 -0.07444,-0.0806 z m 12.44394,-9.60977 c -0.275982,-0.0511 -0.41695,-0.23665 -0.770456,-1.01381 -0.237962,-0.52315 -0.432667,-1.02784 -0.432667,-1.12155 0,-0.0937 -0.07776,-0.36766 -0.172802,-0.6088 -0.095,-0.24114 -0.272846,-0.79891 -0.395134,-1.23948 -0.122279,-0.44058 -0.266403,-0.85814 -0.320278,-0.92789 -0.05388,-0.0697 -0.09971,-0.37016 -0.101874,-0.66755 -0.002,-0.29738 -0.08536,-0.65732 -0.184904,-0.79986 -0.100152,-0.1434 -0.180987,-0.54241 -0.180987,-0.8933 0,-0.34878 -0.05553,-0.67127 -0.123274,-0.71666 -0.06783,-0.0453 -0.123272,-0.45746 -0.123272,-0.91574 0,-0.45828 -0.05524,-0.89303 -0.122709,-0.96613 -0.06752,-0.0731 -0.155466,-0.61079 -0.195495,-1.19489 -0.04005,-0.5841 -0.151229,-1.2885 -0.2471,-1.56535 -0.09646,-0.27851 -0.174322,-0.9757 -0.174322,-1.56084 0,-0.58162 -0.05554,-1.09462 -0.123273,-1.13999 -0.07133,-0.0477 -0.125105,-0.79669 -0.127639,-1.77687 -0.0029,-1.21676 -0.05408,-1.78844 -0.180538,-2.02812 -0.147711,-0.27986 -0.176173,-1.72509 -0.176173,-8.94507 0,-7.219974 0.02846,-8.665214 0.176173,-8.945054 0.137411,-0.26034 0.177127,-0.97086 0.180538,-3.2297 0.0029,-1.78135 0.05174,-2.92768 0.127639,-2.97844 0.07133,-0.0477 0.125115,-0.79667 0.127648,-1.77686 0.0029,-1.21675 0.05398,-1.78844 0.180529,-2.02813 0.119589,-0.22656 0.177577,-0.76475 0.180539,-1.67553 0.0029,-0.87568 0.05692,-1.39862 0.155525,-1.50545 0.08399,-0.091 0.194902,-0.76986 0.249673,-1.52867 0.197162,-2.73123 0.241956,-3.0963 0.412137,-3.35945 0.112446,-0.17386 0.173211,-0.62934 0.173211,-1.29831 0,-0.56677 0.05554,-1.06761 0.123273,-1.11299 0.06781,-0.0453 0.123262,-0.32121 0.123262,-0.61296 0,-0.29174 0.08321,-0.74612 0.184904,-1.00974 0.101709,-0.2636 0.184915,-0.71622 0.184915,-1.0058 0,-0.28957 0.06694,-0.65773 0.148801,-0.81812 0.08185,-0.16039 0.192797,-0.63707 0.246546,-1.05929 0.05379,-0.42222 0.141727,-1.11312 0.195466,-1.53534 0.05379,-0.42222 0.164715,-0.8989 0.246555,-1.05929 0.08185,-0.16039 0.148803,-0.43843 0.148803,-0.61786 0,-0.17944 0.08263,-0.54051 0.183685,-0.80236 0.101027,-0.26187 0.15383,-0.56038 0.117349,-0.66334 -0.03654,-0.10296 0.01871,-0.45178 0.122698,-0.77514 0.103969,-0.32335 0.191813,-0.73812 0.195194,-0.9217 0.0029,-0.18356 0.08546,-0.48396 0.182342,-0.66753 0.09685,-0.18358 0.178131,-0.47971 0.180538,-0.65807 0.0049,-0.35087 0.180304,-1.01962 0.450616,-1.71624 0.09354,-0.24113 0.170113,-0.56147 0.170113,-0.71187 0,-0.15039 0.141542,-0.71759 0.314549,-1.26044 0.293687,-0.92156 0.310953,-1.11336 0.26043,-2.89286 -0.07073,-2.49187 -0.184037,-3.21557 -0.768546,-4.90978 -0.08867,-0.257 -0.225859,-0.70759 -0.304884,-1.00132 -0.193176,-0.71805 -1.186442,-2.96792 -1.516747,-3.43562 -0.145928,-0.20663 -0.47335,-0.64829 -0.727592,-0.98144 -0.254254,-0.33315 -0.46227,-0.67237 -0.46227,-0.75381 0,-0.2135 -3.324153,-3.82531 -3.736327,-4.05964 -0.190498,-0.10831 -0.551068,-0.38879 -0.801268,-0.62328 -0.471439,-0.44184 -0.691092,-0.60812 -1.317803,-0.99758 -0.460544,-0.2862 -1.390004,-1.2988 -1.751014,-1.90764 -0.466734,-0.78715 -1.392413,-2.77939 -1.392413,-2.99674 0,-0.11406 -0.131848,-0.49075 -0.292986,-0.8371 -0.161148,-0.34634 -0.331835,-0.82429 -0.379299,-1.06209 -0.04745,-0.23781 -0.137517,-0.46665 -0.200104,-0.50854 -0.211155,-0.14134 -0.115849,-1.08254 0.163584,-1.61521 0.741107,-1.41281 1.237188,-1.91641 1.887773,-1.91641 0.328805,0 1.217466,0.43862 1.346391,0.66455 0.04219,0.0739 0.651462,0.43761 1.353982,0.80829 0.702521,0.37067 1.406796,0.78359 1.56505,0.91761 0.158253,0.13401 0.565099,0.40213 0.904085,0.59582 0.338999,0.19368 0.755053,0.46418 0.924541,0.6011 0.395045,0.31914 1.624556,1.20597 2.158914,1.5572 0.227193,0.14932 0.518288,0.37462 0.646871,0.50065 0.128583,0.12603 0.288376,0.22914 0.355105,0.22914 0.06674,0 0.284246,0.18574 0.483375,0.41275 0.19913,0.22702 0.565957,0.52636 0.815164,0.6652 0.249204,0.13884 0.686656,0.55243 0.972138,0.9191 0.285464,0.36667 0.631136,0.7052 0.768149,0.7523 0.335177,0.11521 2.673208,2.5126 2.98888,3.06476 0.138271,0.24186 0.49884,0.73746 0.801266,1.10134 0.709186,0.8533 0.944807,1.25106 1.795426,3.03093 0.690213,1.44422 0.84002,1.87496 1.021539,2.93718 0.05023,0.29372 0.156947,0.66526 0.237243,0.82565 0.0803,0.16039 0.145987,0.62388 0.145987,1.02999 0,0.57197 0.04862,0.76336 0.215733,0.84925 0.206643,0.10621 1.59843,0.11878 1.686113,0.0152 0.180008,-0.21256 1.426482,-3.10558 1.426482,-3.31081 0,-0.14375 0.05551,-0.29849 0.123277,-0.34388 0.222321,-0.14881 0.138495,-1.69601 -0.133922,-2.47179 -0.141455,-0.40281 -0.299067,-0.91264 -0.350261,-1.13292 -0.112856,-0.4857 -0.455561,-1.22151 -0.620276,-1.33176 -0.06604,-0.0442 -0.264716,-0.39345 -0.44155,-0.77613 -0.176832,-0.38268 -0.428305,-0.81982 -0.558837,-0.97141 -0.130517,-0.1516 -0.237314,-0.3482 -0.237314,-0.43689 0,-0.0887 -0.208024,-0.41526 -0.462272,-0.72569 -0.254238,-0.31044 -0.538659,-0.71462 -0.632041,-0.8982 -0.287287,-0.56478 -1.393165,-1.83975 -5.826194,-6.71694 -2.669426,-2.93689 -4.336944,-4.87318 -4.44831,-5.16529 -0.655057,-1.71826 -0.68496,-1.99153 -0.275563,-2.51846 0.18392,-0.23674 0.539171,-0.54357 0.789418,-0.68184 0.250258,-0.13827 0.527439,-0.34591 0.615945,-0.46142 0.208621,-0.27225 1.545219,-0.27884 1.979825,-0.01 0.1695,0.10494 0.505105,0.19293 0.745795,0.19553 0.24068,0.003 0.490314,0.0525 0.554723,0.11082 0.06442,0.0583 0.449932,0.21726 0.85673,0.35314 0.875369,0.29238 1.757416,0.71523 1.857371,0.8904 0.03919,0.0687 0.386222,0.29839 0.771134,0.51039 0.384902,0.212 0.893981,0.60643 1.131279,0.87652 0.237298,0.27008 0.625599,0.60057 0.862899,0.73442 0.484475,0.27327 2.958516,2.94348 2.958516,3.1931 0,0.0885 0.263497,0.47267 0.585542,0.85378 0.573463,0.67863 0.682209,0.83564 1.112974,1.60686 0.116712,0.20895 0.364749,0.5927 0.551192,0.85279 0.186449,0.26008 0.338994,0.53584 0.338994,0.6128 0,0.0769 0.118668,0.27672 0.263696,0.44392 0.275185,0.31725 0.353282,0.44777 0.822364,1.37443 0.15664,0.30943 0.517653,0.93338 0.802255,1.38656 0.284597,0.45317 0.620447,1.09432 0.746337,1.42475 0.12589,0.33044 0.32972,0.81107 0.45296,1.06806 0.91345,1.90485 2.33268,5.12331 2.50207,5.67412 0.14004,0.45537 0.2051,1.11686 0.20469,2.08121 l -5.1e-4,1.41367 -0.61819,1.32325 c -0.34002,0.72779 -0.77843,1.56356 -0.97427,1.85728 -0.57756,0.86622 -2.279395,2.51308 -3.584938,3.46914 -0.600413,0.43969 -3.829874,2.20497 -4.033842,2.20497 -0.09197,0 -0.397742,0.12736 -0.679499,0.28305 -0.281758,0.15569 -0.737196,0.35333 -1.012083,0.43924 -0.589432,0.1842 -0.725224,0.43513 -1.30694,2.41515 -0.215738,0.7343 -0.439846,1.45524 -0.498026,1.6021 -0.236815,0.59783 -0.478776,1.48642 -0.480472,1.76445 -7.66e-4,0.16273 -0.07954,0.49316 -0.174586,0.7343 -0.09504,0.24114 -0.266581,0.7989 -0.381175,1.23949 -0.114604,0.44057 -0.258735,0.98554 -0.320289,1.21105 -0.06158,0.22549 -0.113875,0.55593 -0.116276,0.73429 -0.003,0.17836 -0.08366,0.47449 -0.180538,0.65806 -0.0969,0.18358 -0.178143,0.55552 -0.180544,0.82655 -0.003,0.27103 -0.05981,0.52991 -0.127634,0.5753 -0.06779,0.0453 -0.123278,0.26113 -0.123278,0.47944 0,0.21831 -0.0832,0.61261 -0.184909,0.87623 -0.101695,0.26361 -0.184901,0.70541 -0.184901,0.98177 0,0.27635 -0.08287,0.67454 -0.184148,0.88486 -0.101282,0.21033 -0.184488,0.66424 -0.18491,1.0087 -4.45e-4,0.34446 -0.05621,0.66342 -0.12403,0.70881 -0.06779,0.0453 -0.123269,0.39737 -0.123269,0.78222 0,0.38484 -0.06436,0.76941 -0.142988,0.85458 -0.135588,0.14684 -0.233716,0.8616 -0.453475,3.30299 -0.05284,0.58744 -0.162193,1.1993 -0.242928,1.35969 -0.08073,0.16038 -0.146785,0.69003 -0.146785,1.17698 0,0.48695 -0.06937,1.01658 -0.154094,1.17697 -0.158312,0.29963 -0.278223,1.92733 -0.434557,5.89897 -0.05505,1.3983 -0.1485,2.38159 -0.243427,2.56126 -0.118556,0.22437 -0.154093,2.13406 -0.154093,8.281184 0,6.78375 0.02718,8.03152 0.179749,8.26749 0.136476,0.21105 0.194756,0.90097 0.242122,2.86677 0.100763,4.1816 0.243008,6.56925 0.410206,6.88569 0.09256,0.17513 0.154805,0.78842 0.155887,1.53534 7.7e-4,0.7639 0.07415,1.46877 0.189344,1.82702 0.110746,0.34438 0.176565,0.94588 0.160705,1.46859 -0.01472,0.48692 0.03865,1.01654 0.118829,1.17693 0.08013,0.16039 0.147651,0.67105 0.150059,1.13482 0.003,0.47767 0.08074,0.98789 0.180537,1.17697 0.09872,0.18704 0.178092,0.69713 0.180539,1.16032 0.003,0.4546 0.05981,0.86367 0.127639,0.90906 0.06779,0.0453 0.123272,0.40043 0.123272,0.78902 0,0.38856 0.05883,0.88934 0.130793,1.11285 0.184878,0.57436 -0.07842,1.44249 -0.659997,2.17594 l -0.467555,0.5897 -1.689691,0.0232 c -0.929335,0.0128 -1.841693,-0.005 -2.027465,-0.0395 z m 67.432263,-0.866 c -0.42644,-0.25024 -0.73029,-0.58462 -1.41817,-1.56065 -0.32901,-0.46686 -1.39021,-2.79786 -1.39021,-3.05371 0,-0.0996 -0.13869,-0.47741 -0.30818,-0.83968 -0.16949,-0.36227 -0.30819,-0.77081 -0.30819,-0.90787 0,-0.13706 -0.0358,-0.28808 -0.0798,-0.33559 -0.12411,-0.13443 -0.52776,-1.46229 -0.53518,-1.76049 -0.003,-0.14686 -0.14388,-0.68756 -0.31165,-1.20157 -0.16779,-0.51401 -0.30726,-1.08475 -0.30995,-1.26832 -0.003,-0.18358 -0.0842,-0.48397 -0.18106,-0.66755 -0.0969,-0.18357 -0.17816,-0.54705 -0.18056,-0.80773 -0.003,-0.26066 -0.0651,-0.53984 -0.13956,-0.62038 -0.0744,-0.0806 -0.18273,-0.4981 -0.24078,-0.92788 -0.17406,-1.28874 -0.31015,-1.98168 -0.42975,-2.18818 -0.11272,-0.19456 -0.22014,-0.91942 -0.41067,-2.77075 -0.0551,-0.53531 -0.16451,-1.04298 -0.24316,-1.12815 -0.0786,-0.0852 -0.14296,-0.46127 -0.14296,-0.83575 0,-0.37449 -0.0643,-0.75059 -0.143,-0.83577 -0.0786,-0.0852 -0.19114,-0.62286 -0.25,-1.19489 -0.0588,-0.57202 -0.14762,-1.43055 -0.19729,-1.90784 -0.0497,-0.4773 -0.1449,-0.95792 -0.21166,-1.06807 -0.1161,-0.19158 -0.17634,-0.66833 -0.40478,-3.20421 -0.0562,-0.62414 -0.1683,-1.26603 -0.24904,-1.42643 -0.0807,-0.16038 -0.14677,-0.69002 -0.14677,-1.17697 0,-0.48694 -0.0686,-1.01658 -0.15212,-1.17696 -0.14784,-0.28341 -0.25188,-1.199584 -0.43639,-3.843144 -0.0492,-0.70504 -0.15454,-1.36647 -0.23405,-1.46987 -0.0795,-0.10338 -0.17415,-0.72811 -0.21028,-1.38828 -0.13631,-2.49023 -0.27682,-3.8799 -0.42085,-4.1621 -0.0853,-0.16734 -0.14885,-0.80544 -0.14885,-1.49743 0,-1.89928 -0.452,-2.59111 -1.36913,-2.09558 -0.217,0.11723 -0.55608,0.21316 -0.75352,0.21316 -0.19744,0 -0.48013,0.0711 -0.62824,0.15811 -0.2899,0.17023 -0.97642,0.3337 -2.05668,0.48971 -0.37291,0.0539 -0.79917,0.17043 -0.94727,0.25908 -0.14808,0.0886 -0.51925,0.16116 -0.8248,0.16116 -0.30556,0 -0.58983,0.0601 -0.63174,0.13351 -0.042,0.0734 -0.3364,0.13563 -0.65446,0.13824 -0.31804,0.002 -0.716923,0.0906 -0.886433,0.19553 -0.16949,0.10494 -0.53717,0.19293 -0.81703,0.19553 -0.27987,0.002 -0.708,0.0949 -0.9514,0.205 -0.2434,0.11014 -0.74613,0.20026 -1.11722,0.20026 -0.371086,0 -0.708946,0.0601 -0.750846,0.13351 -0.042,0.0734 -0.4926,0.13351 -1.00157,0.13351 -0.51051,0 -1.04606,0.0743 -1.19462,0.16585 -0.23672,0.1458 -1.93216,0.36037 -2.98122,0.37729 -0.54563,0.009 -1.78632,-0.21648 -2.28053,-0.41409 -1.07307,-0.42909 -1.56288,-0.80546 -2.71973,-2.08995 -1.27067,-1.41087 -1.45608,-1.81508 -1.07086,-2.33466 0.30082,-0.40575 1.68759,-1.04085 2.49625,-1.14322 0.27118,-0.0343 0.54578,-0.11634 0.61017,-0.18225 0.0644,-0.0659 0.45273,-0.12197 0.8629,-0.12457 0.41256,-0.002 0.88351,-0.09 1.05399,-0.19553 0.19895,-0.12317 0.68174,-0.19247 1.36215,-0.19552 0.67354,-0.002 1.10954,-0.065 1.2079,-0.17162 0.10247,-0.11109 0.65468,-0.17801 1.65177,-0.20018 0.82379,-0.0183 1.55331,-0.0934 1.62117,-0.16688 0.0726,-0.0786 1.014056,-0.13555 2.286756,-0.13833 1.643,-0.003 2.237553,-0.0506 2.471613,-0.19554 0.21101,-0.13065 0.71146,-0.19228 1.58759,-0.19552 1.4072,-0.006 2.27739,-0.2399 4.45271,-1.20094 0.3729,-0.16475 0.84441,-0.36151 1.04781,-0.43727 0.3884,-0.14467 0.49143,-0.20361 1.14025,-0.65243 0.30368,-0.21006 0.40064,-0.37247 0.40064,-0.6711 0,-0.44654 -0.27713,-1.10457 -0.65238,-1.54904 -0.31852,-0.37725 -2.44812,-1.50183 -2.84404,-1.50183 -0.16219,0 -0.49403,-0.0901 -0.73743,-0.20026 -0.65839,-0.29793 -11.213729,-0.29793 -11.872109,0 -0.30155,0.13645 -0.87073,0.20026 -1.78655,0.20026 -1.29087,0 -1.37792,-0.0185 -2.20152,-0.4677 -0.67304,-0.36708 -0.90913,-0.57724 -1.09737,-0.97687 -0.1319,-0.28004 -0.3271,-0.5876 -0.43375,-0.68347 -0.10666,-0.0959 -0.19588,-0.30211 -0.19829,-0.45835 -0.003,-0.15622 -0.0836,-0.43424 -0.18054,-0.61781 -0.0969,-0.18358 -0.17812,-0.61454 -0.18052,-0.9577 -0.008,-1.14722 0.84498,-1.78063 2.64595,-1.96479 0.4746,-0.0486 0.98405,-0.16181 1.13216,-0.25173 0.42545,-0.25832 12.684639,-0.22393 13.105699,0.0368 0.21333,0.13208 0.71859,0.19226 1.64146,0.19553 0.78496,0.002 1.44401,0.0698 1.60254,0.16285 0.14806,0.087 0.505,0.20712 0.79315,0.26702 0.28814,0.0599 0.75966,0.15889 1.0478,0.21999 0.5964,0.12645 3.41107,1.62386 3.65794,1.94601 0.0896,0.1169 0.21739,0.21254 0.28407,0.21254 0.0667,0 0.286,0.1502 0.48742,0.33377 0.26442,0.24096 0.51134,0.33378 0.88798,0.33378 0.82017,0 0.98379,-0.21245 1.09679,-1.42405 0.21883,-2.34595 0.23259,-2.74544 0.0995,-2.88958 -0.074,-0.0801 -0.1344,-0.3462 -0.1344,-0.59145 0,-0.64896 -0.38388,-1.36368 -1.21709,-2.26608 -0.66514,-0.72039 -0.84616,-0.83509 -1.92195,-1.21785 l -1.18765,-0.42255 h -6.96488 c -6.064573,0 -7.012863,0.0268 -7.336189,0.20797 -0.30788,0.17244 -0.79258,0.20095 -2.83713,0.16689 l -2.4658,-0.0411 -0.57752,-0.68372 c -0.97297,-1.15184 -1.25554,-1.64706 -1.25554,-2.20033 0,-0.27757 -0.0556,-0.54179 -0.12327,-0.58717 -0.0679,-0.0453 -0.12328,-0.25566 -0.12328,-0.46728 0,-0.21162 0.0554,-0.4219 0.12328,-0.46728 0.0677,-0.0453 0.12327,-0.22899 0.12327,-0.40802 0,-0.41073 0.75436,-1.32895 1.37229,-1.67036 1.23221,-0.68084 1.01245,-0.66653 9.312499,-0.60614 7.61236,0.0554 10.02795,0.15149 10.39465,0.41349 0.1017,0.0727 0.54546,0.17262 0.98615,0.22214 0.96,0.10787 2.10977,0.36371 2.28054,0.50746 0.0677,0.0571 0.26196,0.13578 0.43145,0.17491 0.53327,0.1231 1.13093,0.38331 2.46543,1.07343 1.63832,0.84723 2.17246,1.24203 3.36919,2.49032 0.83746,0.8735 1.06212,1.21462 1.69501,2.57364 0.68569,1.47247 0.72957,1.62351 0.72957,2.51206 0,0.51997 -0.0675,1.07661 -0.15031,1.23701 -0.0826,0.16038 -0.18968,0.68213 -0.23784,1.15942 -0.10629,1.05374 -0.27168,1.9552 -0.4409,2.40315 -0.0694,0.18356 -0.22098,0.6642 -0.33697,1.06807 -0.116,0.40386 -0.25338,0.85445 -0.30528,1.00131 -0.21273,0.6019 -0.40487,1.2245 -0.49443,1.60209 -0.0523,0.2203 -0.34778,0.97128 -0.65671,1.66886 -0.30894,0.69759 -0.66198,1.53868 -0.78454,1.86912 -0.12257,0.33043 -0.37544,0.87114 -0.56197,1.20157 -0.1865,0.33044 -0.64395,1.24195 -1.01654,2.02559 -0.37258,0.78364 -0.73598,1.46399 -0.80756,1.5119 -0.0716,0.048 -0.32289,0.50169 -0.55851,1.0084 l -0.42837,0.92128 v 3.21631 c 0,2.32852 0.0425,3.29681 0.15408,3.50794 0.0848,0.16038 0.19437,1.01255 0.24359,1.89372 0.17572,3.14532 0.2835,4.2764 0.4349,4.56388 0.0846,0.16039 0.15359,0.690024 0.15359,1.176964 0,0.48696 0.0628,1.01219 0.13928,1.16723 0.14233,0.28799 0.29688,1.22603 0.4566,2.77126 0.0492,0.4773 0.15732,0.99904 0.23999,1.15943 0.0826,0.16039 0.15031,0.5023 0.15031,0.7598 0,0.25749 0.0555,0.5053 0.12327,0.55068 0.0677,0.0453 0.12522,0.36434 0.12763,0.7088 0.003,0.34446 0.0836,0.77648 0.18055,0.96005 0.0968,0.18358 0.17814,0.56602 0.18053,0.84989 0.003,0.28387 0.0936,0.82457 0.20248,1.20157 0.36647,1.26814 0.41825,1.50393 0.41825,1.90438 0,0.21941 0.0815,0.51553 0.18099,0.65807 0.0995,0.14253 0.18274,0.43512 0.18491,0.6502 0.002,0.21508 0.0541,0.57555 0.11583,0.80104 0.0615,0.22551 0.20567,0.77048 0.32029,1.21106 0.1146,0.44058 0.2861,0.99834 0.38116,1.23948 0.095,0.24115 0.1728,0.57243 0.1728,0.73618 0,0.16376 0.11781,0.62733 0.26181,1.03017 0.14402,0.40281 0.28612,0.94268 0.31583,1.19969 0.0297,0.25699 0.10132,0.58743 0.15916,0.73428 0.058,0.14688 0.19963,0.59746 0.31509,1.00133 0.11548,0.40386 0.28661,0.93158 0.38029,1.17271 0.0937,0.24115 0.17116,0.57157 0.17215,0.73431 0.002,0.27652 0.24045,1.15528 0.47945,1.76445 0.0576,0.14686 0.2571,0.80773 0.44332,1.46858 0.18619,0.66088 0.41492,1.39089 0.50825,1.62229 0.21731,0.5387 0.21036,1.35488 -0.0153,1.78219 -0.0969,0.18356 -0.17815,0.45543 -0.18056,0.60412 -0.007,0.42361 -1.67662,2.11207 -2.55872,2.58737 -0.90372,0.48693 -1.59996,0.52553 -2.28007,0.12642 z M 69.647925,133.2407 c -0.84496,-0.82675 -0.9776,-1.25387 -0.9776,-3.1479 0,-0.90613 0.0501,-1.70456 0.11141,-1.77432 0.0613,-0.0697 0.13151,-0.80272 0.15605,-1.6288 0.0502,-1.69009 0.0179,-1.74098 -0.75393,-1.18823 -1.196623,0.85696 -1.666126,1.15486 -1.820105,1.15486 -0.346334,0 -1.111139,-0.53111 -1.611635,-1.11917 -0.510865,-0.60025 -1.468151,-2.58413 -1.746933,-3.62037 -0.079,-0.29372 -0.217418,-0.74431 -0.30755,-1.00132 -0.09014,-0.257 -0.258282,-0.82776 -0.373651,-1.26833 -0.115379,-0.44057 -0.26014,-0.98555 -0.321686,-1.21105 -0.06158,-0.22551 -0.11191,-0.54685 -0.11191,-0.71413 0,-0.16726 -0.07888,-0.49342 -0.1753,-0.72481 -0.0964,-0.23138 -0.205248,-0.63097 -0.241861,-0.88798 -0.03657,-0.25701 -0.118769,-0.84898 -0.182578,-1.31548 -0.06381,-0.46651 -0.176856,-0.91409 -0.251226,-0.99464 -0.0744,-0.0806 -0.135203,-0.40872 -0.135203,-0.72929 0,-0.32058 -0.06266,-0.70971 -0.139285,-0.86473 -0.152574,-0.30876 -0.321032,-1.37316 -0.453405,-2.86482 -0.04694,-0.52873 -0.154646,-1.0364 -0.2394,-1.12814 -0.08825,-0.0955 -0.154085,-0.5014 -0.154085,-0.94992 0,-0.43072 -0.06259,-0.90971 -0.139,-1.06442 -0.07647,-0.15471 -0.132589,-0.58632 -0.12475,-0.95915 0.0078,-0.37284 -0.06833,-0.84997 -0.169187,-1.06029 -0.110931,-0.23127 -0.18342,-0.74921 -0.18342,-1.31048 0,-0.51044 -0.06895,-1.05931 -0.153136,-1.2197 -0.142711,-0.27176 -0.195524,-0.76943 -0.434692,-4.096594 -0.05015,-0.69758 -0.160291,-1.39956 -0.244761,-1.55994 -0.08892,-0.16882 -0.153587,-0.762 -0.153587,-1.40852 0,-0.71563 -0.05538,-1.17677 -0.154085,-1.28355 -0.106951,-0.11567 -0.163021,-0.78733 -0.183269,-2.19542 -0.01603,-1.11582 -0.06726,-2.11924 -0.113782,-2.22983 -0.07371,-0.17517 -0.275753,-1.83977 -0.291767,-2.40394 -0.01381,-0.48699 0.222159,-2.2353 0.344969,-2.5557 0.0744,-0.19404 0.106865,-0.4703 0.07217,-0.61388 -0.03467,-0.14359 0.02447,-0.4878 0.131353,-0.76492 0.106919,-0.27713 0.196352,-0.66176 0.19876,-0.85472 0.003,-0.19296 0.08365,-0.50104 0.18053,-0.68461 0.0969,-0.18358 0.178144,-0.52984 0.180552,-0.76949 0.003,-0.23964 0.05238,-0.54004 0.111108,-0.66754 0.141675,-0.30769 0.385508,-1.06985 0.501276,-1.56691 0.05132,-0.22029 0.212857,-0.65347 0.35899,-0.96262 0.14614,-0.30915 0.265705,-0.67729 0.265705,-0.81808 0,-0.1408 0.08725,-0.33443 0.193913,-0.43028 0.106657,-0.0959 0.295947,-0.3886 0.42065,-0.65052 0.409914,-0.86095 1.628017,-1.87804 2.249207,-1.87804 0.34609,0 2.395954,1.16044 2.482787,1.40552 0.04256,0.12013 0.07738,1.26681 0.07738,2.54818 0,1.76887 -0.04449,2.44515 -0.184901,2.80905 -0.249055,0.64559 -0.276582,9.90337 -0.03084,10.36846 0.0896,0.1696 0.191398,1.1017 0.243249,2.22749 0.15944,3.46157 0.277794,4.86765 0.434739,5.16467 0.08856,0.16761 0.154093,0.75328 0.154093,1.37725 0,0.59708 0.06219,1.211424 0.138158,1.365204 0.076,0.15377 0.130263,0.72106 0.120616,1.26061 -0.01166,0.65004 0.04579,1.11359 0.170022,1.37388 0.110823,0.23209 0.187563,0.74388 0.187563,1.25094 0,0.47197 0.0832,1.07381 0.184901,1.33741 0.10438,0.27056 0.184908,0.88477 0.184908,1.41027 0,0.51204 0.05552,0.96811 0.123272,1.01348 0.06779,0.0453 0.123622,0.51454 0.124036,1.04258 4.45e-4,0.59046 0.07163,1.10727 0.184908,1.34246 0.101275,0.21031 0.184145,0.69864 0.184145,1.08514 0,0.3865 0.0846,0.92204 0.18802,1.19009 0.10972,0.28442 0.17713,0.80547 0.16188,1.25126 -0.0144,0.42015 0.0397,0.89512 0.12015,1.05551 0.0805,0.16039 0.14828,0.61097 0.15067,1.00132 0.003,0.39033 0.0837,0.85989 0.18054,1.04346 0.10854,0.2056 0.17786,0.72083 0.18054,1.34176 0.003,0.5901 0.0647,1.07327 0.14979,1.16548 0.0814,0.0881 0.13317,0.44815 0.11762,0.81737 -0.0152,0.36294 0.058,0.88217 0.16277,1.15385 0.1048,0.27168 0.19055,0.81351 0.19055,1.20407 0,0.39057 0.0589,0.74959 0.13104,0.79781 0.18033,0.12071 0.6086,-0.32401 0.6086,-0.63199 0,-0.13839 0.11956,-0.50459 0.2657,-0.81373 0.14613,-0.30914 0.30885,-0.74233 0.36162,-0.96261 0.13289,-0.55487 0.59886,-2.046 0.80458,-2.57456 0.0938,-0.24115 0.17062,-0.54455 0.17062,-0.67424 0,-0.12967 0.0483,-0.29285 0.10744,-0.3626 0.059,-0.0697 0.20232,-0.48732 0.31834,-0.92789 0.11601,-0.44057 0.28958,-0.99835 0.38566,-1.23949 0.0961,-0.24112 0.17653,-0.57156 0.17876,-0.73428 0.004,-0.31653 0.39991,-1.64565 0.53258,-1.78935 0.0437,-0.0476 0.0798,-0.29059 0.0798,-0.54017 0,-0.2496 0.0658,-0.58505 0.146,-0.74543 0.0803,-0.16039 0.19124,-0.54695 0.24655,-0.85903 0.0554,-0.31206 0.14581,-0.82275 0.20109,-1.13481 0.0553,-0.31209 0.16626,-0.69865 0.24655,-0.85903 0.0803,-0.16039 0.14599,-0.46894 0.14599,-0.68566 0,-0.21672 0.0812,-0.56381 0.18072,-0.77129 0.0994,-0.2075 0.15084,-0.50623 0.1143,-0.66385 -0.0366,-0.15763 0.0209,-0.51273 0.12746,-0.78913 0.10664,-0.27639 0.19387,-0.82959 0.19387,-1.22931 0,-0.39972 0.0675,-0.85799 0.15031,-1.01839 0.16925,-0.3284 0.31374,-1.49506 0.44125,-3.56256 0.0476,-0.771014 0.15578,-1.533064 0.24054,-1.693454 0.22299,-0.42199 0.22487,-23.42148 0.002,-23.8488 -0.0836,-0.16039 -0.19232,-0.77224 -0.24144,-1.35969 -0.18754,-2.24275 -0.31151,-3.15342 -0.44961,-3.30299 -0.0787,-0.0852 -0.14301,-0.46127 -0.14301,-0.83576 0,-0.37449 -0.0519,-0.73797 -0.11564,-0.80773 -0.0636,-0.0698 -0.14482,-0.39203 -0.18049,-0.71616 -0.0356,-0.32413 -0.12231,-0.65156 -0.19253,-0.72762 -0.0702,-0.0761 -0.1277,-0.3405 -0.1277,-0.58764 0,-0.24715 -0.0658,-0.58058 -0.14599,-0.74098 -0.0803,-0.16038 -0.19121,-0.54695 -0.24654,-0.85902 -0.24533,-1.38444 -0.31823,-1.72251 -0.43892,-2.03601 -0.0708,-0.18357 -0.21425,-0.6642 -0.31904,-1.06806 -0.10477,-0.40387 -0.25479,-0.97838 -0.33337,-1.27671 -0.15234,-0.57831 -0.10679,-1.7292 0.10898,-2.75338 0.12238,-0.58096 0.85764,-2.23695 1.56763,-3.53068 0.34161,-0.62251 1.31908,-1.65131 1.56888,-1.65131 0.0906,0 0.32753,-0.18615 0.52666,-0.41367 0.43329,-0.49506 3.168456,-2.01145 4.337366,-2.40467 0.45776,-0.15398 0.94323,-0.32747 1.07882,-0.38555 0.77624,-0.33241 1.39811,-0.53434 1.64557,-0.53434 0.15474,0 0.40252,-0.0725 0.55062,-0.16116 0.26707,-0.15987 0.91696,-0.27984 2.64716,-0.4887 0.49426,-0.0597 0.96301,-0.17818 1.04163,-0.26335 0.0786,-0.0852 0.25672,-0.15738 0.39571,-0.16046 0.73377,-0.0162 2.10607,-1.35684 2.63926,-2.5783 0.57228,-1.311 0.67419,-1.69528 0.72744,-2.74308 0.0527,-1.03861 -0.0166,-1.32227 -0.68836,-2.81703 -0.24275,-0.54012 -0.44411,-0.79226 -0.76147,-0.9535 -0.2373,-0.12056 -0.53711,-0.34585 -0.66627,-0.50065 -0.12917,-0.1548 -0.31493,-0.28146 -0.41282,-0.28146 -0.0979,0 -0.3528,-0.0802 -0.56644,-0.17829 -1.25895,-0.57786 -2.01172,-0.76532 -3.40791,-0.84871 -0.5759,-0.0344 -1.1029,-0.11181 -1.17108,-0.17203 -0.21472,-0.18967 -6.124656,-0.21916 -6.433526,-0.0322 -0.14809,0.0897 -0.5364,0.1652 -0.86289,0.1678 -0.32651,0.002 -0.73233,0.0906 -0.90182,0.19553 -0.19078,0.11812 -0.66705,0.19261 -1.25022,0.19554 l -0.94201,0.005 -0.63583,-0.61914 c -0.3498,-0.34052 -0.74007,-0.84019 -0.86732,-1.11037 -0.12727,-0.27018 -0.31509,-0.56647 -0.41739,-0.65842 -0.1023,-0.0919 -0.22413,-0.35828 -0.27074,-0.59185 -0.0465,-0.23358 -0.2166,-0.70806 -0.37773,-1.05441 -0.16115,-0.34635 -0.293,-0.78301 -0.293,-0.97036 0,-0.18735 0.27101,-0.92531 0.60226,-1.63991 0.44369,-0.95717 0.78255,-1.48384 1.28697,-2.0002 l 0.6847,-0.70092 0.90111,0.005 c 0.54758,0.003 1.022,0.0796 1.20928,0.19553 0.1695,0.10494 0.45395,0.19293 0.63212,0.19554 0.17818,0.003 0.52178,0.0943 0.76356,0.20366 0.24178,0.10942 0.5174,0.16661 0.61247,0.1271 0.0951,-0.0395 0.41714,0.0203 0.71571,0.13289 0.298556,0.1126 0.754506,0.20561 1.013196,0.20668 0.25871,0.001 0.59155,0.0761 0.73964,0.16669 0.25531,0.15622 0.91902,0.24662 3.47431,0.47323 0.61021,0.0541 1.23061,0.17302 1.37871,0.26424 0.16929,0.10427 0.77043,0.16584 1.61925,0.16584 0.95776,0 1.45258,0.058 1.70309,0.19944 0.22024,0.12441 0.69764,0.19975 1.26888,0.20027 1.06208,9.9e-4 1.38212,0.0996 2.96113,0.91263 1.05983,0.54571 1.2823,0.7313 2.46542,2.05673 0.71528,0.80129 1.3843,1.61995 1.48669,1.81925 0.10241,0.1993 0.31043,0.53341 0.46227,0.74247 0.15184,0.20906 0.276066,0.46029 0.276066,0.55826 0,0.098 0.12399,0.43533 0.27551,0.74967 0.34675,0.71927 0.70137,1.81868 0.70665,2.19069 0.002,0.15625 0.0873,0.49978 0.18893,0.76339 0.10313,0.26734 0.18489,0.88267 0.18489,1.39144 0,0.50168 0.0592,0.97638 0.1318,1.0549 0.26059,0.28223 -0.003,3.5635 -0.3413,4.24967 -0.0724,0.14686 -0.16949,0.51442 -0.2157,0.81679 -0.10844,0.70935 0.0694,0.79112 0.94009,0.43206 0.3609,-0.14883 0.8226,-0.31946 1.02601,-0.37917 0.523423,-0.15364 1.189983,-0.40235 1.480743,-0.55247 0.14841,-0.0766 1.26247,-0.0982 2.77362,-0.0537 5.75386,0.16945 7.23274,0.11173 8.38097,-0.32712 1.53193,-0.5855 2.83163,-1.64146 3.34631,-2.71879 0.39856,-0.83426 0.23795,-3.14531 -0.28448,-4.0933 -0.0608,-0.11015 -0.20586,-0.37798 -0.32256,-0.59518 -0.42414,-0.78939 -1.09993,-1.35094 -2.55436,-2.12259 -1.05282,-0.55859 -1.61166,-0.75319 -2.16602,-0.75427 -0.23248,-4.8e-4 -0.58156,-0.0906 -0.77575,-0.20026 -0.53078,-0.29979 -4.92998,-0.2884 -5.49009,0.0143 -0.29363,0.15864 -0.65811,0.20162 -1.41531,0.16689 -0.9151,-0.0419 -1.06734,-0.0879 -1.48221,-0.44731 -0.92695,-0.80301 -2.526833,-2.72179 -2.760373,-3.31061 -0.29559,-0.74524 -0.194,-1.2156 0.388,-1.79662 0.89913,-0.89761 2.244803,-1.40976 4.234583,-1.61163 0.48818,-0.0495 0.95694,-0.16516 1.04165,-0.25694 0.21346,-0.23132 1.68779,-0.20763 2.07704,0.0334 0.22467,0.1391 0.76549,0.19208 1.99587,0.19553 0.98724,0.003 1.71934,0.0601 1.7639,0.13824 0.042,0.0734 0.41963,0.13564 0.83935,0.13824 0.42767,0.003 0.89866,0.0886 1.07137,0.19553 0.16949,0.10494 0.50509,0.19293 0.74578,0.19554 0.2407,0.003 0.4903,0.0571 0.55474,0.12107 0.0644,0.064 0.44994,0.21983 0.85672,0.34632 1.33128,0.41392 2.59332,0.9709 2.79431,1.23319 0.0784,0.10232 0.48622,0.36554 0.90628,0.58495 0.95601,0.49937 2.5847,2.2606 3.07617,3.32655 0.1862,0.40386 0.43631,0.85445 0.55578,1.00131 0.11949,0.14686 0.24643,0.41721 0.2821,0.60078 0.0754,0.38822 0.32234,1.16608 0.47617,1.50016 0.0586,0.12751 0.10871,0.5781 0.11112,1.00131 0.003,0.42322 0.0836,0.91969 0.18055,1.10326 0.12041,0.22816 0.17617,0.75625 0.17617,1.66886 0,0.91261 -0.0557,1.4407 -0.17617,1.66885 -0.0969,0.18357 -0.17814,0.57786 -0.18055,0.8762 -0.003,0.29833 -0.14305,0.85377 -0.31254,1.23429 -0.1695,0.38053 -0.30818,0.77768 -0.30818,0.88255 0,0.10487 -0.13869,0.36918 -0.30819,0.58734 -0.1695,0.21816 -0.30818,0.45659 -0.30818,0.52983 0,0.23831 -1.13153,1.5034 -1.58866,1.77616 -0.47998,0.28641 -1.11179,0.74294 -1.63588,1.18205 -0.18025,0.151 -0.41478,0.27454 -0.52118,0.27454 -0.10643,0 -0.48597,0.14286 -0.84341,0.31746 -1.18676,0.57971 -1.90201,0.79597 -3.30023,0.99791 -0.37289,0.0539 -0.79915,0.17044 -0.94726,0.25908 -0.16499,0.0987 -0.80047,0.16116 -1.64101,0.16116 -0.9215,0 -1.56879,0.0698 -1.97213,0.21269 -0.75003,0.26569 -4.2026,0.23021 -4.45712,-0.0457 -0.0983,-0.10666 -0.5343,-0.16859 -1.20787,-0.17162 -0.68038,-0.003 -1.16319,-0.0724 -1.36214,-0.19554 -0.16951,-0.10493 -0.51292,-0.19292 -0.76316,-0.19552 -0.25026,-0.002 -0.48929,-0.0648 -0.5312,-0.13824 -0.042,-0.0734 -0.185693,-0.13351 -0.319553,-0.13351 -0.44541,0 -1.40392,-0.63255 -1.99422,-1.31604 -0.46825,-0.54217 -0.58309,-0.76831 -0.58309,-1.14815 0,-0.37997 -0.0473,-0.47299 -0.24042,-0.47299 -0.13224,0 -0.28479,0.083 -0.339006,0.18446 -0.10135,0.18967 -3.25642,1.95167 -3.49468,1.95167 -0.073,0 -0.44269,0.15344 -0.82125,0.34099 -0.82511,0.40876 -2.78839,1.12682 -3.08831,1.12954 -0.2169,0.002 -1.11922,0.30512 -1.56988,0.52743 -0.13562,0.0669 -0.4407,0.14785 -0.67801,0.17991 -0.4227,0.0571 -1.08307,0.28047 -1.5084,0.51019 -0.11772,0.0636 -0.36736,0.11598 -0.55472,0.11644 -0.18737,4.8e-4 -0.49956,0.0906 -0.69375,0.20026 -0.19421,0.10969 -0.50639,0.19944 -0.69376,0.19944 -0.18736,0 -0.5398,0.0901 -0.78323,0.20027 -0.2434,0.11014 -0.62925,0.20026 -0.85746,0.20026 -0.36256,0 -0.47032,0.0884 -0.85416,0.70091 -0.9194,1.4671 -0.97793,1.68503 -0.91702,3.41423 0.0613,1.73999 0.2387,3.14864 0.42787,3.39722 0.0688,0.0904 0.15356,0.55487 0.18836,1.03217 0.0932,1.27642 0.27807,2.45063 0.43651,2.77127 0.0766,0.15503 0.13928,0.57888 0.13928,0.94188 0,0.363 0.0832,0.8757 0.18491,1.1393 0.10437,0.27056 0.18491,0.88477 0.18491,1.41027 0,0.51203 0.0556,0.9681 0.12325,1.01348 0.0677,0.0453 0.12525,0.51454 0.12765,1.04257 0.003,0.57927 0.0743,1.09244 0.18054,1.29383 0.11959,0.22656 0.17758,0.76475 0.18054,1.67553 0.003,0.80188 0.0596,1.40161 0.14172,1.49051 0.0923,0.1 0.13102,0.93786 0.11807,2.55417 -0.0153,1.90152 0.0206,2.50864 0.17083,2.89819 0.26609,0.68973 0.26586,3.56891 -3.6e-4,4.25892 -0.16255,0.42136 -0.18648,1.26951 -0.16343,5.79056 0.0196,3.84993 -0.0126,5.37653 -0.11773,5.58848 -0.0917,0.18476 -0.14474,0.99858 -0.14474,2.22101 0,1.451804 -0.0456,2.024034 -0.18414,2.311794 -0.1262,0.26205 -0.18438,0.7896 -0.1849,1.67623 -3.5e-4,0.71759 -0.0556,1.33057 -0.12405,1.37634 -0.0677,0.0453 -0.12523,0.60466 -0.12764,1.24284 -0.003,0.75324 -0.0662,1.27741 -0.18052,1.49408 -0.10854,0.20561 -0.17786,0.72083 -0.18054,1.34176 -0.003,0.55439 -0.0653,1.07389 -0.13959,1.15443 -0.12565,0.13609 -0.23256,0.73722 -0.45831,2.57713 -0.0495,0.40386 -0.14305,0.82441 -0.20775,0.93456 -0.0646,0.11015 -0.15718,0.53069 -0.20557,0.93455 -0.13799,1.15222 -0.29113,1.91075 -0.4497,2.2275 -0.0803,0.16038 -0.146,0.50228 -0.146,0.75978 0,0.25751 -0.0487,0.50085 -0.10846,0.54078 -0.16938,0.11338 -0.50789,1.34541 -0.50789,1.84849 0,0.24933 -0.0356,0.492 -0.0793,0.53926 -0.12737,0.13796 -0.65898,1.60819 -0.66082,1.82767 -7.8e-4,0.11015 -0.13814,0.50067 -0.30491,0.86782 -0.166746,0.36715 -0.304916,0.74321 -0.307046,0.83569 -0.006,0.27619 -2.42896,5.437 -2.64227,5.62874 -0.10825,0.0973 -0.19682,0.24844 -0.19682,0.33586 0,0.0874 -0.1715,0.33539 -0.38111,0.55105 -0.20959,0.21567 -0.48126,0.60241 -0.6037,0.85942 -0.12242,0.25699 -0.58406,0.84277 -1.02584,1.30171 l -0.80327,0.83442 h -0.99667 c -0.97507,0 -1.00728,-0.0106 -1.49886,-0.49155 z m -33.865877,-3.74425 c -0.347133,-0.0464 -0.443726,-0.14527 -0.663816,-0.67954 -0.141661,-0.34389 -0.333297,-0.78473 -0.425846,-0.97963 -0.09257,-0.19491 -0.168282,-0.54333 -0.168282,-0.77431 0,-0.23096 -0.08428,-0.59638 -0.187223,-0.81205 -0.103999,-0.21781 -0.177927,-0.67683 -0.166302,-1.03256 0.01149,-0.35224 -0.04288,-0.76963 -0.120943,-0.92755 -0.202299,-0.40937 -0.201012,-11.40193 7.59e-4,-11.6211 0.09471,-0.1026 0.134361,-0.64687 0.117028,-1.60727 -0.01852,-1.02483 0.02953,-1.62546 0.163144,-2.04108 0.127737,-0.39729 0.189942,-1.09446 0.19114,-2.1424 7.7e-4,-1.11519 0.05379,-1.66136 0.185947,-1.93587 0.126196,-0.26207 0.184388,-0.78959 0.184915,-1.67623 4.48e-4,-0.7176 0.05564,-1.33058 0.124032,-1.37635 0.06781,-0.0453 0.12523,-0.60465 0.127638,-1.24282 0.0029,-0.753254 0.06616,-1.277414 0.18053,-1.494084 0.111695,-0.21162 0.17777,-0.73097 0.180538,-1.41892 0.0029,-0.64821 0.07826,-1.27659 0.187808,-1.56061 0.102507,-0.26573 0.174799,-0.81768 0.163856,-1.25126 -0.01082,-0.42668 0.04531,-0.90701 0.124753,-1.0674 0.07942,-0.16039 0.144312,-0.64402 0.144312,-1.07474 0,-0.43072 0.06431,-0.85281 0.142993,-0.93799 0.07864,-0.0852 0.187058,-0.59284 0.240924,-1.12814 0.164345,-1.63318 0.316906,-2.58116 0.46298,-2.87676 0.07658,-0.15502 0.139274,-0.42867 0.139274,-0.6081 0,-0.17944 0.08321,-0.54193 0.184914,-0.80554 0.101689,-0.26361 0.184904,-0.67734 0.184904,-0.91938 0,-0.24204 0.11574,-0.76965 0.257195,-1.17248 0.141455,-0.40282 0.303655,-0.91265 0.360433,-1.13294 0.292539,-1.13489 0.401341,-1.4798 0.503264,-1.59542 0.06149,-0.0697 0.111834,-0.23607 0.111834,-0.36957 0,-0.43226 1.196887,-2.82802 1.645671,-3.29408 0.345,-0.35827 0.564691,-0.46617 1.052626,-0.51694 1.198195,-0.1247 1.415858,0.10218 1.927773,2.00946 0.114066,0.42501 0.340022,1.05584 0.502115,1.40184 0.351684,0.75069 0.405063,2.1567 0.110849,2.91934 -0.1017,0.26361 -0.186882,0.72729 -0.189279,1.03041 -0.0029,0.3031 -0.08361,0.7013 -0.18054,0.88486 -0.09873,0.18704 -0.178092,0.69714 -0.180538,1.16032 -0.0029,0.45461 -0.05982,0.86369 -0.127638,0.90907 -0.06781,0.0453 -0.125241,0.45446 -0.127638,0.90905 -0.0029,0.46319 -0.08185,0.97329 -0.180538,1.16032 -0.102372,0.19396 -0.178006,0.70487 -0.18055,1.21963 -0.0029,0.48722 -0.08106,1.0833 -0.174711,1.32462 -0.09646,0.24851 -0.143141,0.65831 -0.107624,0.94509 0.03605,0.29159 -0.02241,0.78795 -0.137841,1.17038 -0.110302,0.36522 -0.200541,1.03219 -0.200541,1.48216 0,0.44996 -0.06938,0.94935 -0.154094,1.10973 -0.08478,0.1604 -0.194785,0.92245 -0.244539,1.69346 -0.216894,3.361284 -0.289243,4.088854 -0.433953,4.363614 -0.09569,0.18159 -0.155242,0.83641 -0.157952,1.7356 -0.0029,0.99951 -0.05856,1.54673 -0.180538,1.77777 -0.122991,0.233 -0.177499,0.78488 -0.180549,1.82786 -0.0029,0.84665 -0.05788,1.52985 -0.127628,1.5766 -0.07151,0.0479 -0.123282,0.78312 -0.123282,1.75227 0,1.09126 -0.05339,1.77078 -0.154093,1.96137 -0.14812,0.28033 -0.211575,1.21911 -0.43029,6.36625 -0.05671,1.33483 -0.154328,2.31779 -0.247695,2.49449 -0.106036,0.20068 -0.154093,0.97324 -0.154093,2.4771 v 2.18547 l -0.400631,0.41176 c -0.220353,0.22648 -0.567046,0.50367 -0.770445,0.61598 -0.203409,0.11232 -0.589099,0.44947 -0.857102,0.74924 -0.50875,0.56905 -0.6309,0.6 -1.768017,0.448 z M 27.078714,81.917846 c -0.603413,-0.51406 -0.937071,-1.4491 -0.937071,-2.626 0,-1.00957 0.01821,-1.07525 0.523901,-1.88731 0.288142,-0.46274 0.640012,-1.04772 0.781925,-1.29997 0.408308,-0.72576 6.286486,-7.39087 6.51826,-7.39087 0.07133,0 1.072065,-1.02555 2.223906,-2.279 1.15184,-1.25344 2.288402,-2.39025 2.525701,-2.52622 0.237297,-0.13597 0.761588,-0.61134 1.165091,-1.05639 0.730195,-0.80536 0.733898,-0.81343 0.783378,-1.71267 0.02739,-0.49693 0.09939,-0.96058 0.160077,-1.03033 0.15345,-0.17639 0.141493,-3.64155 -0.01296,-3.74491 -0.06781,-0.0453 -0.123282,-0.20084 -0.123282,-0.34547 0,-0.39529 -0.715158,-1.85669 -1.186832,-2.42521 -0.228635,-0.27558 -0.415692,-0.56542 -0.415692,-0.64408 0,-0.21482 -1.367867,-1.72532 -1.562409,-1.72532 -0.09286,0 -0.403416,-0.22529 -0.690047,-0.50065 -0.517461,-0.49711 -0.687563,-0.63032 -1.368774,-1.07189 -0.194979,-0.1264 -0.500087,-0.35717 -0.677985,-0.51281 -0.177908,-0.15565 -0.767242,-0.52433 -1.309627,-0.81929 -0.791386,-0.43037 -1.199236,-0.77572 -2.064804,-1.74838 -0.593251,-0.66664 -1.078625,-1.29381 -1.078625,-1.3937 0,-0.0999 -0.130278,-0.31417 -0.289497,-0.47617 -0.159227,-0.162 -0.392502,-0.63809 -0.518405,-1.05796 -0.125903,-0.41988 -0.272991,-0.82049 -0.326865,-0.89026 -0.05388,-0.0698 -0.09796,-0.38055 -0.09796,-0.69066 0,-1.18483 1.064717,-1.91942 2.782018,-1.91942 0.563668,0 1.056505,0.0555 1.095181,0.12324 0.03868,0.0678 0.249925,0.16596 0.46945,0.21817 0.546137,0.12992 4.230859,2.12458 4.678787,2.53279 0.199179,0.1815 0.409964,0.33 0.468437,0.33 0.05846,0 0.362686,0.24032 0.676036,0.53404 0.313342,0.29371 0.626088,0.53403 0.694989,0.53403 0.151375,0 3.801661,4.02201 3.80328,4.19059 5.07e-4,0.0652 0.209157,0.36983 0.463409,0.67694 0.497154,0.6005 0.673083,0.90194 1.473902,2.52527 0.285211,0.57814 0.604174,1.15361 0.708816,1.27884 0.104643,0.12523 0.190254,0.304 0.190254,0.39726 0,0.26608 0.3872,1.10676 0.700942,1.52188 0.156879,0.20756 0.28523,0.49337 0.28523,0.63514 0,0.14176 0.131047,0.54269 0.291221,0.89095 0.388926,0.84561 0.590931,1.46998 0.65838,2.03501 0.03069,0.25701 0.134672,0.6566 0.231092,0.88799 0.09637,0.23139 0.175295,0.60333 0.175295,0.82654 0,0.22322 0.05545,0.44298 0.123282,0.48837 0.159823,0.10697 0.159823,0.69406 0,0.80104 -0.06781,0.0453 -0.123282,0.20112 -0.123282,0.3461 0,0.32989 -0.531278,1.48061 -0.791649,1.71464 -0.106991,0.0962 -0.194522,0.25408 -0.194522,0.35092 0,0.32717 -4.5846,5.66559 -4.865572,5.66559 -0.07249,0 -0.657679,0.57517 -1.300438,1.27815 -0.642759,0.70298 -1.362801,1.38893 -1.600098,1.52434 -0.237298,0.13539 -0.681074,0.52644 -0.986171,0.869 -0.305099,0.34255 -0.748874,0.73325 -0.986172,0.86822 -0.237298,0.13498 -0.734655,0.58061 -1.105234,0.9903 -0.370578,0.40968 -0.734639,0.74489 -0.809014,0.74489 -0.07435,0 -0.29817,0.1856 -0.4973,0.41244 -0.19914,0.22685 -0.528473,0.50498 -0.731871,0.61808 -0.203408,0.11309 -0.659217,0.48322 -1.012918,0.82251 -1.047188,1.00446 -1.55358,1.43572 -1.945605,1.65694 -0.203399,0.11478 -0.785853,0.66823 -1.294348,1.22989 -1.159451,1.28069 -1.595051,1.53503 -2.628803,1.53503 -0.615263,0 -0.862149,-0.0618 -1.118449,-0.28019 z"
       id="path1" />
  </g>
</svg>
